<svg width="68" height="52" viewBox="0 0 68 52" fill="none" xmlns="http://www.w3.org/2000/svg">
<g clip-path="url(#clip0_416_35218)">
<path d="M4.82791 49.1637C4.82791 49.1637 -1.47251 44.737 1.4232 39.172C4.32091 33.6071 10.1143 25.0642 7.21461 20.7077C4.32091 16.3531 4.02633 2.40157 20.6852 0.26135C33.9733 -1.44401 38.0113 5.57382 40.0714 10.3633C42.7887 16.6817 40.3599 28.2144 53.065 29.7354C65.772 31.2564 73.0303 37.5388 63.9284 47.781C59.9505 52.2558 4.82791 49.1617 4.82791 49.1617V49.1637Z" fill="#C9D6F2"/>
<path d="M27.5785 45.6827C18.2021 47.7328 10.565 44.8872 13.1701 40.0456C15.7753 35.2041 14.1781 34.5929 12.1702 33.0699C10.1602 31.5469 5.64732 27.3065 10.044 22.6493C14.4467 17.9942 11.1021 16.6435 9.72736 13.9041C5.71345 5.91234 21.9975 2.63187 17.5909 9.98637C14.2823 15.5072 14.4567 19.7336 18.5688 22.5431C22.6829 25.3527 23.5025 26.8336 23.3222 30.3064C23.1398 33.7793 21.719 41.1578 25.9113 40.8492C30.0995 40.5426 32.388 44.6306 27.5785 45.6827Z" fill="#EBF2FF"/>
<path d="M10.5459 12.8139C10.111 11.9863 10.0088 7.9303 13.9446 8.14071C16.3393 8.26896 15.0969 11.5394 14.5538 14.0564C14.0127 16.5733 14.3815 20.5251 15.3834 22.1523C17.2331 25.1542 16.8363 26.4167 14.5478 28.9938C14.5478 28.9938 13.3594 30.9076 15.5518 32.9596C17.7441 35.0117 16.8964 40.6648 19.4434 41.5806C21.9904 42.4964 23.4293 44.4483 21.6838 44.6306C19.9424 44.813 12.7182 45.5164 14.6199 40.759C17.3914 33.8353 11.9887 31.7833 10.6421 30.2463C9.40765 28.8375 8.35157 25.6913 11.9326 21.7435C14.7021 18.6895 11.8825 15.3609 10.5479 12.8139H10.5459Z" fill="#CBDBF4"/>
<path d="M20.2883 48.8412L20.144 49.4765C20.0078 49.4424 16.7413 48.6208 13.2224 46.3623C8.53717 43.3544 5.68956 39.2263 4.99219 34.4128L5.59938 34.3086C7.21858 45.4846 20.1561 48.8092 20.2863 48.8412H20.2883Z" fill="#7585F8"/>
<path d="M5.4341 35.0575C5.4341 35.0575 2.03139 33.2519 3.44217 29.0938C3.44217 29.0938 6.46213 31.5466 5.4341 35.0575Z" fill="#7585F8"/>
<path d="M6.52486 38.4554C6.52486 38.4554 1.88572 40.0064 0 34.7681C0 34.7681 2.47488 33.8603 6.52486 38.4554Z" fill="#7585F8"/>
<path d="M6.36644 38.4779C6.36644 38.4779 10.6729 36.0751 8.5267 30.957C8.5267 30.957 6.17606 32.1754 6.36644 38.4779Z" fill="#7585F8"/>
<path d="M8.93955 42.3543C8.93955 42.3543 4.46673 44.4004 2.08203 39.4005C2.08203 39.4005 4.45471 38.2262 8.93955 42.3543Z" fill="#7585F8"/>
<path d="M8.78206 42.3909C8.78206 42.3909 12.836 39.5353 10.1988 34.6797C10.1988 34.6797 7.97446 36.1486 8.78206 42.3909Z" fill="#7585F8"/>
<path d="M12.7892 45.7417C12.7892 45.7417 8.70715 48.5613 5.54492 44.0744C5.54492 44.0744 7.69516 42.4873 12.7892 45.7417Z" fill="#7585F8"/>
<path d="M12.6383 45.8064C12.6383 45.8064 16.1733 42.2614 12.7886 37.9609C12.7886 37.9609 10.8328 39.8086 12.6383 45.8064Z" fill="#7585F8"/>
<path d="M16.7467 47.8629C16.7467 47.8629 13.4983 51.7045 9.33008 48.2517C9.33008 48.2517 11.0214 46.1335 16.7467 47.8629Z" fill="#7585F8"/>
<path d="M16.6215 47.9662C16.6215 47.9662 19.1705 43.5795 14.834 40.3672C14.834 40.3672 13.3992 42.6838 16.6215 47.9662Z" fill="#7585F8"/>
<path d="M44.4588 48.8572C53.4385 51.308 60.9734 48.9313 58.6909 44.1118C56.4084 39.2943 57.9835 38.7833 60.0055 37.4066C62.0274 36.0319 66.6065 32.1502 62.5785 27.4209C58.5486 22.6916 61.8531 21.5514 63.32 18.9663C67.6024 11.4254 51.9977 7.43954 55.8994 14.782C58.8291 20.2929 58.4524 24.3749 54.3283 26.8919C50.2081 29.4088 49.3404 30.8036 49.3444 34.1742C49.3484 37.5449 50.3584 44.7611 46.3145 44.2561C42.2725 43.7511 39.8537 47.5967 44.4588 48.8532V48.8572Z" fill="#7585F8"/>
<g style="mix-blend-mode:overlay" opacity="0.2">
<path d="M62.5832 17.871C63.0461 17.0915 63.3467 13.1678 59.5252 13.1758C57.2006 13.1818 58.2426 16.4102 58.6434 18.875C59.0422 21.3399 58.4891 25.1474 57.4391 26.6744C55.4992 29.4899 55.8199 30.7324 57.91 33.3395C57.91 33.3395 58.9641 35.2533 56.7377 37.131C54.5133 39.0107 55.0544 44.5256 52.5434 45.2871C50.0305 46.0466 48.5395 47.8682 50.2208 48.1287C51.9001 48.3912 58.8619 49.4313 57.2527 44.73C54.9141 37.8865 60.2466 36.1671 61.6273 34.7463C62.8918 33.4437 64.0701 30.4478 60.7997 26.45C58.2687 23.3539 61.1664 20.2718 62.5832 17.871Z" fill="#F6F5F7"/>
</g>
<path d="M43.1538 48.6965L43.0176 47.8649C56.2316 45.7046 61.9489 35.3562 62.007 35.25L62.7505 35.6508C62.6923 35.755 56.7927 46.4701 43.1559 48.6965H43.1538Z" fill="#EBF2FF"/>
<path d="M61.9512 35.9593C61.9512 35.9593 63.6766 31.4965 65.927 32.9213C66.8829 33.5265 66.3679 35.6908 61.9512 35.9593Z" fill="#EBF2FF"/>
<path d="M60.9512 37.4188C60.9512 37.4188 65.3498 34.8758 65.8088 37.4469C66.0011 38.5431 64.0733 39.9779 60.9512 37.4188Z" fill="#EBF2FF"/>
<path d="M60.9589 37.8912C60.9589 37.8912 63.6522 33.7831 60.8788 33.3864C59.6984 33.214 58.1674 35.0176 60.9589 37.8912Z" fill="#EBF2FF"/>
<path d="M58.0282 40.8725C58.0282 40.8725 60.9279 36.8646 58.1885 36.3436C57.0222 36.1192 55.4091 37.8566 58.0282 40.8725Z" fill="#EBF2FF"/>
<path d="M55.4603 43.1378C55.4603 43.1378 58.338 39.1259 55.5986 38.6088C54.4303 38.3864 52.8231 40.1298 55.4603 43.1378Z" fill="#EBF2FF"/>
<path d="M51.8708 45.37C51.8708 45.37 55.4238 41.8271 52.8828 40.8531C51.7986 40.4383 49.9129 41.9192 51.8708 45.37Z" fill="#EBF2FF"/>
<path d="M48.7613 46.7891C48.7613 46.7891 52.2121 43.16 49.629 42.2602C48.5349 41.8795 46.6853 43.4045 48.7613 46.7891Z" fill="#EBF2FF"/>
<path d="M44.5036 48.0122C44.5036 48.0122 48.8041 45.3029 46.6739 43.7458C45.7641 43.0805 43.5878 44.1166 44.5036 48.0122Z" fill="#EBF2FF"/>
<path d="M58.8008 40.1057C58.8008 40.1057 63.2075 37.5627 63.6604 40.1358C63.8547 41.23 61.9309 42.6608 58.8008 40.1057Z" fill="#EBF2FF"/>
<path d="M56.1719 42.4784C56.1719 42.4784 60.5766 39.9394 61.0315 42.5104C61.2278 43.6026 59.3 45.0374 56.1719 42.4784Z" fill="#EBF2FF"/>
<path d="M53.2832 44.4069C53.2832 44.4069 58.0867 42.8058 57.8843 45.469C57.8021 46.6033 55.6158 47.6273 53.2832 44.4069Z" fill="#EBF2FF"/>
<path d="M49.873 46.2164C49.873 46.2164 54.7807 45.0741 54.2757 47.7354C54.0613 48.8676 51.8028 49.6852 49.873 46.2164Z" fill="#EBF2FF"/>
<path d="M46.2559 47.482C46.2559 47.482 51.2076 46.991 50.3038 49.6022C49.9131 50.7123 47.5865 51.2294 46.2559 47.482Z" fill="#EBF2FF"/>
<path d="M63.706 49.9232C63.706 50.9732 50.1833 51.8229 33.5004 51.8229C16.8176 51.8229 3.29492 50.9712 3.29492 49.9232C3.29492 48.8751 16.8196 48.0234 33.5004 48.0234C50.1813 48.0234 63.706 48.8731 63.706 49.9232Z" fill="#ACBFE2"/>
<path d="M56.3491 28.5271C56.3491 40.2181 46.8724 49.6928 35.1814 49.6928C23.4903 49.6928 14.0137 40.2161 14.0137 28.5271C14.0137 16.8381 23.4903 7.35938 35.1814 7.35938C46.8724 7.35938 56.3491 16.8361 56.3491 28.5271Z" fill="#4EAF48"/>
<path d="M37.0693 36.3949C37.6845 37.3949 37.0633 38.8959 35.6825 39.7435C34.3018 40.5912 32.6826 40.467 32.0694 39.465L25.0015 27.9543C24.3863 26.9523 25.0055 25.4534 26.3882 24.6057C27.7689 23.758 29.3881 23.8823 30.0013 24.8822L37.0693 36.3929V36.3949Z" fill="#F6F5F7"/>
<path d="M36.813 38.9094C35.9653 40.2901 34.1578 40.723 32.779 39.8753C31.3963 39.0276 30.9655 37.2201 31.8131 35.8394L41.5523 19.9661C42.4 18.5854 44.2076 18.1525 45.5883 19.0002C46.969 19.8478 47.4019 21.6534 46.5542 23.0361L36.813 38.9114V38.9094Z" fill="#F6F5F7"/>
</g>
<defs>
<clipPath id="clip0_416_35218">
<rect width="68" height="51.8221" fill="white"/>
</clipPath>
</defs>
</svg>
