<svg width="18" height="18" viewBox="0 0 18 18" fill="none" xmlns="http://www.w3.org/2000/svg">
<path fill-rule="evenodd" clip-rule="evenodd" d="M0.25 9.08067C0.25 6.73863 1.18037 4.49251 2.83644 2.83644C4.49251 1.18037 6.73863 0.25 9.08067 0.25C11.4227 0.25 13.6688 1.18037 15.3249 2.83644C16.981 4.49251 17.9113 6.73863 17.9113 9.08067C17.9113 11.4227 16.981 13.6688 15.3249 15.3249C13.6688 16.981 11.4227 17.9113 9.08067 17.9113C6.73863 17.9113 4.49251 16.981 2.83644 15.3249C1.18037 13.6688 0.25 11.4227 0.25 9.08067ZM9.08067 1.51667C7.07457 1.51667 5.15064 2.31359 3.73211 3.73211C2.31359 5.15064 1.51667 7.07457 1.51667 9.08067C1.51667 11.0868 2.31359 13.0107 3.73211 14.4292C5.15064 15.8477 7.07457 16.6447 9.08067 16.6447C11.0868 16.6447 13.0107 15.8477 14.4292 14.4292C15.8477 13.0107 16.6447 11.0868 16.6447 9.08067C16.6447 7.07457 15.8477 5.15064 14.4292 3.73211C13.0107 2.31359 11.0868 1.51667 9.08067 1.51667ZM10.0807 13.0807C10.0807 13.3459 9.97531 13.6002 9.78777 13.7878C9.60024 13.9753 9.34588 14.0807 9.08067 14.0807C8.81545 14.0807 8.5611 13.9753 8.37356 13.7878C8.18602 13.6002 8.08067 13.3459 8.08067 13.0807C8.08067 12.8155 8.18602 12.5611 8.37356 12.3736C8.5611 12.186 8.81545 12.0807 9.08067 12.0807C9.34588 12.0807 9.60024 12.186 9.78777 12.3736C9.97531 12.5611 10.0807 12.8155 10.0807 13.0807ZM7.14733 7.414C7.14733 6.51 7.92733 5.64733 9.08067 5.64733C10.234 5.64733 11.014 6.51 11.014 7.414C11.014 8.06867 10.654 8.40333 10.0327 8.78067C9.96467 8.82333 9.88467 8.86867 9.798 8.91933C9.53744 9.06327 9.28627 9.2236 9.046 9.39933C8.72333 9.65 8.34733 10.0567 8.34733 10.6807C8.34663 10.8752 8.42321 11.062 8.56024 11.2C8.69726 11.338 8.88351 11.416 9.078 11.4167C9.27249 11.4174 9.4593 11.3408 9.59733 11.2038C9.73535 11.0667 9.81329 10.8805 9.814 10.686C9.85124 10.6357 9.89624 10.5915 9.94733 10.5553C10.0833 10.45 10.234 10.3633 10.4353 10.246C10.5393 10.186 10.658 10.1167 10.7953 10.034C11.5073 9.60067 12.4807 8.886 12.4807 7.414C12.4807 5.65133 10.994 4.18067 9.08067 4.18067C7.16733 4.18067 5.68067 5.65133 5.68067 7.414C5.68067 7.60849 5.75793 7.79502 5.89546 7.93255C6.03298 8.07007 6.21951 8.14733 6.414 8.14733C6.60849 8.14733 6.79502 8.07007 6.93255 7.93255C7.07007 7.79502 7.14733 7.60849 7.14733 7.414Z" fill="black"/>
</svg>
