<svg width="32" height="32" viewBox="0 0 32 32" fill="none" xmlns="http://www.w3.org/2000/svg">
<path d="M4 8H6.66667H28" stroke="#667080" stroke-width="2" stroke-linecap="round" stroke-linejoin="round"/>
<path d="M10.666 7.99935V5.33268C10.666 4.62544 10.947 3.94716 11.4471 3.44706C11.9472 2.94697 12.6254 2.66602 13.3327 2.66602H18.666C19.3733 2.66602 20.0515 2.94697 20.5516 3.44706C21.0517 3.94716 21.3327 4.62544 21.3327 5.33268V7.99935M25.3327 7.99935V26.666C25.3327 27.3733 25.0517 28.0515 24.5516 28.5516C24.0515 29.0517 23.3733 29.3327 22.666 29.3327H9.33268C8.62544 29.3327 7.94716 29.0517 7.44706 28.5516C6.94697 28.0515 6.66602 27.3733 6.66602 26.666V7.99935H25.3327Z" stroke="#667080" stroke-width="2" stroke-linecap="round" stroke-linejoin="round"/>
<path d="M13.334 14.666V22.666" stroke="#667080" stroke-width="2" stroke-linecap="round" stroke-linejoin="round"/>
<path d="M18.666 14.666V22.666" stroke="#667080" stroke-width="2" stroke-linecap="round" stroke-linejoin="round"/>
</svg>
