<svg width="22" height="22" viewBox="0 0 22 22" fill="none" xmlns="http://www.w3.org/2000/svg">
<path d="M2.75 5.5H4.58333H19.25" stroke="#F43258" stroke-width="1.5" stroke-linecap="round" stroke-linejoin="round"/>
<path d="M7.33301 5.4987V3.66536C7.33301 3.17913 7.52616 2.71282 7.86998 2.369C8.2138 2.02519 8.68011 1.83203 9.16634 1.83203H12.833C13.3192 1.83203 13.7856 2.02519 14.1294 2.369C14.4732 2.71282 14.6663 3.17913 14.6663 3.66536V5.4987M17.4163 5.4987V18.332C17.4163 18.8183 17.2232 19.2846 16.8794 19.6284C16.5356 19.9722 16.0692 20.1654 15.583 20.1654H6.41634C5.93011 20.1654 5.4638 19.9722 5.11998 19.6284C4.77616 19.2846 4.58301 18.8183 4.58301 18.332V5.4987H17.4163Z" stroke="#F43258" stroke-width="1.5" stroke-linecap="round" stroke-linejoin="round"/>
<path d="M9.16699 10.082V15.582" stroke="#F43258" stroke-width="1.5" stroke-linecap="round" stroke-linejoin="round"/>
<path d="M12.833 10.082V15.582" stroke="#F43258" stroke-width="1.5" stroke-linecap="round" stroke-linejoin="round"/>
</svg>
