<svg width="22" height="22" viewBox="0 0 22 22" fill="none" xmlns="http://www.w3.org/2000/svg">
<path d="M10.083 3.66797H3.66634C3.18011 3.66797 2.7138 3.86112 2.36998 4.20494C2.02616 4.54876 1.83301 5.01507 1.83301 5.5013V18.3346C1.83301 18.8209 2.02616 19.2872 2.36998 19.631C2.7138 19.9748 3.18011 20.168 3.66634 20.168H16.4997C16.9859 20.168 17.4522 19.9748 17.796 19.631C18.1399 19.2872 18.333 18.8209 18.333 18.3346V11.918" stroke="#514B4D" stroke-width="1.5" stroke-linecap="round" stroke-linejoin="round"/>
<path d="M16.958 2.2922C17.3227 1.92753 17.8173 1.72266 18.333 1.72266C18.8487 1.72266 19.3433 1.92753 19.708 2.2922C20.0727 2.65687 20.2776 3.15147 20.2776 3.6672C20.2776 4.18292 20.0727 4.67753 19.708 5.0422L10.9997 13.7505L7.33301 14.6672L8.24967 11.0005L16.958 2.2922Z" stroke="#514B4D" stroke-width="1.5" stroke-linecap="round" stroke-linejoin="round"/>
</svg>
