<svg width="48" height="44" viewBox="0 0 48 44" fill="none" xmlns="http://www.w3.org/2000/svg">
<g clip-path="url(#clip0_801_3990)">
<path d="M14.5463 42.2988H13.2237C13.1526 42.2988 13.0952 42.2414 13.0952 42.1704L13.0898 38.3227C13.0898 37.8527 12.9067 37.4619 12.5405 37.1476C12.1743 36.847 11.6879 36.6967 11.084 36.6967C10.6085 36.6967 10.1876 36.8389 9.82146 37.1203C9.33231 37.4974 9.0891 38.0412 9.0891 38.7572C9.0891 39.4158 9.29405 39.9514 9.70669 40.3695C10.0838 40.7466 10.5402 40.9324 11.084 40.9324C11.3982 40.9324 11.6934 40.8395 11.9748 40.6564C12.1962 40.5116 12.4503 40.2711 12.7345 39.9377C12.811 39.8476 12.9586 39.9022 12.9586 40.0225V41.6539C12.9586 41.6976 12.934 41.7386 12.8985 41.7632C12.535 41.9927 12.2754 42.143 12.1197 42.2141C11.789 42.348 11.4092 42.4163 10.9774 42.4163C10.0783 42.4163 9.29952 42.0938 8.64093 41.4489C7.9113 40.7466 7.54785 39.8503 7.54785 38.7572C7.54785 37.7406 7.85118 36.9099 8.46058 36.2677C9.11916 35.5654 10.0264 35.2129 11.1851 35.2129C12.3438 35.2129 13.1608 35.5326 13.7976 36.1721C14.3851 36.7678 14.6775 37.5111 14.6775 38.402V42.1676C14.6775 42.2387 14.6201 42.2961 14.549 42.2961L14.5463 42.2988Z" fill="white"/>
<path d="M21.1024 35.2695C21.1734 35.2695 21.2308 35.3269 21.2308 35.398L21.2171 37.7454C21.2117 38.434 21.0504 39.0243 20.7335 39.5107C20.3809 40.0436 19.8617 40.418 19.1731 40.6366C19.1212 40.653 19.0829 40.7022 19.0829 40.7568V43.6425C19.0829 43.7136 19.0255 43.771 18.9545 43.771H17.6264C17.5553 43.771 17.4979 43.7136 17.4979 43.6425V40.7568C17.4979 40.7022 17.4597 40.653 17.4077 40.6366C16.8011 40.4425 16.3283 40.1529 15.9867 39.7648C15.585 39.3167 15.3828 38.7483 15.3828 38.0596V35.398C15.3828 35.3269 15.4402 35.2695 15.5112 35.2695H16.812C16.8831 35.2695 16.9405 35.3269 16.9405 35.398V37.7454C16.9405 38.1799 17.0334 38.5187 17.2165 38.7647C17.4351 39.068 17.7903 39.221 18.2849 39.221C18.7194 39.221 19.0556 39.0789 19.2906 38.792C19.5283 38.5187 19.6458 38.1799 19.6458 37.7727V35.398C19.6458 35.3269 19.7032 35.2695 19.7743 35.2695H21.1024Z" fill="white"/>
<path d="M28.286 32.3162H26.9989C25.8074 32.3162 24.7034 32.7562 23.6814 33.6306C22.55 34.6008 21.9844 35.8086 21.9844 37.2487C21.9844 38.6889 22.4544 39.8721 23.3945 40.8341C24.3208 41.8096 25.5041 42.2988 26.947 42.2988H28.2887C28.3598 42.2988 28.4172 42.2414 28.4172 42.1704V40.8696C28.4172 40.7985 28.3598 40.7411 28.2887 40.7411H27.1738C25.8758 40.7411 24.922 40.3012 24.3154 39.4185C23.9137 38.831 23.7114 38.1369 23.7114 37.3307C23.7114 36.4125 23.9902 35.631 24.5504 34.9806C25.1953 34.2291 26.0807 33.852 27.2093 33.852L28.2887 33.8629C28.3598 33.8629 28.4172 33.8055 28.4172 33.7345V32.4419C28.4172 32.3709 28.3598 32.3135 28.2887 32.3135L28.286 32.3162Z" fill="white"/>
<path d="M32.5357 35.2431C31.9646 35.2431 31.4673 35.3552 31.0464 35.582C30.9617 35.6284 30.8579 35.5683 30.8579 35.4699V32.4448C30.8579 32.3738 30.8005 32.3164 30.7294 32.3164H29.4614C29.3904 32.3164 29.333 32.3738 29.333 32.4448V42.1705C29.333 42.2416 29.3904 42.299 29.4614 42.299H30.7294C30.8005 42.299 30.8579 42.2416 30.8579 42.1705V38.3366C30.8579 37.9103 30.9617 37.5577 31.1721 37.2763C31.4399 36.9183 31.8416 36.7379 32.3745 36.7379C32.7762 36.7379 33.1014 36.8664 33.3474 37.1205C33.5851 37.3883 33.7026 37.7654 33.7026 38.2491L33.7081 42.1705C33.7081 42.2416 33.7655 42.299 33.8365 42.299H35.1591C35.2302 42.299 35.2876 42.2416 35.2876 42.1705V38.0278C35.2876 37.1232 35.0116 36.4182 34.4623 35.9127C33.9649 35.4645 33.3228 35.2404 32.5357 35.2404V35.2431Z" fill="white"/>
<path d="M39.7417 35.2158C38.5831 35.2158 37.6731 35.5683 37.0172 36.2706C36.4078 36.9156 36.1045 37.7463 36.1045 38.7601C36.1045 39.8532 36.4679 40.7495 37.1976 41.4519C37.8562 42.0968 38.635 42.4192 39.534 42.4192C39.9631 42.4192 40.3429 42.3509 40.6763 42.217C40.8321 42.146 41.0917 41.9957 41.4551 41.7661C41.4934 41.7415 41.5153 41.7005 41.5153 41.6568V40.0254C41.5153 39.9079 41.3677 39.8505 41.2912 39.9407C41.007 40.2741 40.7556 40.5118 40.5315 40.6594C40.2527 40.8425 39.9549 40.9354 39.6406 40.9354C39.0995 40.9354 38.6404 40.7468 38.2633 40.3724C37.8507 39.9571 37.6457 39.4187 37.6457 38.7601C37.6457 38.0442 37.889 37.4976 38.3781 37.1232C38.7443 36.8418 39.1651 36.6997 39.6406 36.6997C40.2445 36.6997 40.731 36.85 41.0971 37.1506C41.4633 37.4648 41.6464 37.8556 41.6464 38.3256L41.6519 42.1733C41.6519 42.2443 41.7093 42.3017 41.7803 42.3017H43.103C43.174 42.3017 43.2314 42.2443 43.2314 42.1733V38.4076C43.2314 37.5168 42.939 36.7735 42.3515 36.1777C41.7147 35.5383 40.8457 35.2186 39.739 35.2186L39.7417 35.2158Z" fill="white"/>
<path d="M45.7675 36.8471H47.8745C47.9455 36.8471 48.0029 36.7897 48.0029 36.7186V35.478C48.0029 35.4069 47.9455 35.3496 47.8745 35.3496H45.7675C45.6965 35.3496 45.6391 35.2922 45.6391 35.2211V33.7974C45.6391 33.7263 45.5817 33.6689 45.5107 33.6689H44.229C44.158 33.6689 44.1006 33.7263 44.1006 33.7974V40.0525C44.1006 40.7002 44.2645 41.2221 44.5897 41.6157C44.9669 42.0638 45.5353 42.2879 46.2949 42.2879H47.8717C47.9428 42.2879 48.0002 42.2305 48.0002 42.1595V40.9188C48.0002 40.8478 47.9428 40.7904 47.8717 40.7904H46.3223C46.0845 40.7904 45.9096 40.7412 45.7976 40.6428C45.691 40.5499 45.6364 40.4269 45.6364 40.2794V36.9701C45.6364 36.899 45.6938 36.8416 45.7648 36.8416L45.7675 36.8471Z" fill="white"/>
<path d="M6.65961 37.9753C6.46832 37.6064 6.18958 37.2949 5.82613 37.038C5.76055 36.9916 5.74962 36.8959 5.807 36.8413C6.02835 36.6281 6.18685 36.4204 6.28249 36.2155C6.43006 35.9067 6.50384 35.4777 6.50384 34.9256C6.50384 34.0348 6.17045 33.3379 5.50367 32.8324C4.89974 32.376 4.12912 32.1465 3.19453 32.1465C2.25995 32.1465 1.4702 32.4525 0.852605 33.0674C0.284202 33.6358 0 34.3081 0 35.0869V43.6375C0 43.7605 0.163962 43.8179 0.251409 43.725L1.5877 42.2602C1.5877 42.2602 1.60683 42.2356 1.6123 42.222C1.6123 42.2192 1.6123 42.2165 1.61503 42.211C1.61503 42.2028 1.6205 42.1974 1.6205 42.1892C1.6205 42.1837 1.62323 42.1755 1.62323 42.1701L1.60956 35.27C1.60956 34.8327 1.75713 34.4556 2.05226 34.1414C2.33373 33.8408 2.73271 33.6905 3.24646 33.6905C3.72195 33.6905 4.11546 33.797 4.42699 34.0129C4.72758 34.237 4.87788 34.5677 4.87788 35.0076C4.87788 35.3656 4.78224 35.6635 4.58822 35.9012C4.34227 36.2155 3.96243 36.3712 3.44594 36.3712H1.92109C1.85004 36.3712 1.79266 36.4286 1.79266 36.4997V37.8005C1.79266 37.8715 1.85004 37.9289 1.92109 37.9289H3.6591C4.12912 37.9289 4.50623 38.0273 4.7877 38.224C5.13749 38.47 5.31238 38.8362 5.31238 39.3253C5.31238 39.8145 5.15662 40.1806 4.84236 40.4266C4.57728 40.637 4.23023 40.7408 3.79573 40.7408H1.92109C1.85004 40.7408 1.79266 40.7982 1.79266 40.8693V42.1701C1.79266 42.2411 1.85004 42.2985 1.92109 42.2985H3.89411C4.78497 42.2985 5.5146 42.0198 6.08301 41.465C6.65141 40.9185 6.93561 40.1642 6.93561 39.2023C6.93561 38.7514 6.8427 38.3415 6.65961 37.9726V37.9753Z" fill="white"/>
<path d="M32.8058 0H15.1962C12.4796 0 10.2773 2.20225 10.2773 4.91887V22.5284C10.2773 25.2451 12.4796 27.4473 15.1962 27.4473H32.8058C35.5224 27.4473 37.7247 25.2451 37.7247 22.5284V4.91887C37.7247 2.20225 35.5224 0 32.8058 0Z" fill="white"/>
<path d="M30.4835 14.229C30.1091 13.5103 29.5653 12.8982 28.8548 12.3953C28.7263 12.3052 28.7045 12.1193 28.8192 12.01C29.251 11.5919 29.5625 11.1847 29.7484 10.7885C30.038 10.1846 30.1829 9.3429 30.1829 8.26621C30.1829 6.52275 29.5297 5.15639 28.2262 4.16715C27.043 3.27356 25.5373 2.82812 23.7063 2.82812C21.8754 2.82812 20.3287 3.42932 19.1209 4.62898C18.0086 5.74119 17.4512 7.06109 17.4512 8.58321V25.321C17.4512 25.5615 17.7736 25.6736 17.9431 25.4905L20.4927 22.6949H25.0727C26.8162 22.6949 28.2426 22.1511 29.3576 21.0662C30.4698 19.9977 31.0273 18.5221 31.0273 16.6392C31.0273 15.7538 30.8469 14.9531 30.4889 14.2344L30.4835 14.229Z" fill="url(#paint0_linear_801_3990)"/>
<path d="M20.6672 13.8519C21.2195 13.8519 21.6673 13.4041 21.6673 12.8517C21.6673 12.2994 21.2195 11.8516 20.6672 11.8516C20.1148 11.8516 19.667 12.2994 19.667 12.8517C19.667 13.4041 20.1148 13.8519 20.6672 13.8519Z" fill="white"/>
<path d="M23.3644 13.8519C23.9168 13.8519 24.3646 13.4041 24.3646 12.8517C24.3646 12.2994 23.9168 11.8516 23.3644 11.8516C22.8121 11.8516 22.3643 12.2994 22.3643 12.8517C22.3643 13.4041 22.8121 13.8519 23.3644 13.8519Z" fill="white"/>
<path d="M26.0588 13.8519C26.6111 13.8519 27.0589 13.4041 27.0589 12.8517C27.0589 12.2994 26.6111 11.8516 26.0588 11.8516C25.5064 11.8516 25.0586 12.2994 25.0586 12.8517C25.0586 13.4041 25.5064 13.8519 26.0588 13.8519Z" fill="white"/>
</g>
<defs>
<linearGradient id="paint0_linear_801_3990" x1="24.2392" y1="2.82812" x2="24.2392" y2="25.5814" gradientUnits="userSpaceOnUse">
<stop stop-color="#852988"/>
<stop offset="0.31" stop-color="#91268A"/>
<stop offset="1" stop-color="#AB218E"/>
</linearGradient>
<clipPath id="clip0_801_3990">
<rect width="48" height="43.6933" fill="white"/>
</clipPath>
</defs>
</svg>
