<svg width="37" height="51" viewBox="0 0 37 51" fill="none" xmlns="http://www.w3.org/2000/svg">
<g filter="url(#filter0_d_545_34661)">
<path d="M31.2272 24.0322C30.4599 22.5621 29.3531 21.3161 27.9033 20.2908C27.6385 20.104 27.5978 19.7272 27.8286 19.5031C28.7114 18.6509 29.3429 17.8191 29.7265 17.0076C30.3173 15.7752 30.6127 14.0572 30.6127 11.8605C30.6127 8.3058 29.2818 5.51496 26.6166 3.49483C24.2026 1.67163 21.13 0.761719 17.3953 0.761719C13.6606 0.761719 10.5065 1.98738 8.03817 4.4353C5.7668 6.70667 4.63281 9.39565 4.63281 12.5056V46.6509C4.63281 47.1432 5.28808 47.3707 5.63439 47.0006L10.8358 41.2967H20.1827C23.7375 41.2967 26.6539 40.1899 28.9219 37.9728C31.1899 35.7931 32.3272 32.7816 32.3272 28.9383C32.3272 27.132 31.9606 25.499 31.2272 24.0322Z" fill="url(#paint0_linear_545_34661)"/>
</g>
<path d="M11.1987 23.2587C12.3256 23.2587 13.2392 22.3452 13.2392 21.2182C13.2392 20.0913 12.3256 19.1777 11.1987 19.1777C10.0718 19.1777 9.1582 20.0913 9.1582 21.2182C9.1582 22.3452 10.0718 23.2587 11.1987 23.2587Z" fill="white"/>
<path d="M16.6987 23.2587C17.8256 23.2587 18.7392 22.3452 18.7392 21.2182C18.7392 20.0913 17.8256 19.1777 16.6987 19.1777C15.5718 19.1777 14.6582 20.0913 14.6582 21.2182C14.6582 22.3452 15.5718 23.2587 16.6987 23.2587Z" fill="white"/>
<path d="M22.1987 23.2587C23.3256 23.2587 24.2392 22.3452 24.2392 21.2182C24.2392 20.0913 23.3256 19.1777 22.1987 19.1777C21.0718 19.1777 20.1582 20.0913 20.1582 21.2182C20.1582 22.3452 21.0718 23.2587 22.1987 23.2587Z" fill="white"/>
<defs>
<filter id="filter0_d_545_34661" x="0.632812" y="0.761719" width="35.6953" height="54.4219" filterUnits="userSpaceOnUse" color-interpolation-filters="sRGB">
<feFlood flood-opacity="0" result="BackgroundImageFix"/>
<feColorMatrix in="SourceAlpha" type="matrix" values="0 0 0 0 0 0 0 0 0 0 0 0 0 0 0 0 0 0 127 0" result="hardAlpha"/>
<feOffset dy="4"/>
<feGaussianBlur stdDeviation="2"/>
<feComposite in2="hardAlpha" operator="out"/>
<feColorMatrix type="matrix" values="0 0 0 0 0.741176 0 0 0 0 0.741176 0 0 0 0 0.741176 0 0 0 0.25 0"/>
<feBlend mode="normal" in2="BackgroundImageFix" result="effect1_dropShadow_545_34661"/>
<feBlend mode="normal" in="SourceGraphic" in2="effect1_dropShadow_545_34661" result="shape"/>
</filter>
<linearGradient id="paint0_linear_545_34661" x1="18.48" y1="0.761719" x2="18.48" y2="47.1839" gradientUnits="userSpaceOnUse">
<stop stop-color="#852988"/>
<stop offset="0.31" stop-color="#91268A"/>
<stop offset="1" stop-color="#AB218E"/>
</linearGradient>
</defs>
</svg>
