<svg width="22" height="22" viewBox="0 0 22 22" fill="none" xmlns="http://www.w3.org/2000/svg">
<path d="M18.333 4.58398H9.97301L9.16634 1.83398H3.66634C2.65801 1.83398 1.83301 2.65898 1.83301 3.66732V15.584C1.83301 16.5923 2.65801 17.4173 3.66634 17.4173H10.083L10.9997 20.1673H18.333C19.3413 20.1673 20.1663 19.3423 20.1663 18.334V6.41732C20.1663 5.40898 19.3413 4.58398 18.333 4.58398ZM6.57217 13.3748C4.50967 13.3748 2.82301 11.6973 2.82301 9.62565C2.82301 7.55398 4.50051 5.87648 6.57217 5.87648C7.52551 5.87648 8.39634 6.21565 9.08384 6.85732L9.14801 6.91232L8.02051 7.99398L7.96551 7.94815C7.69967 7.70065 7.25051 7.40732 6.57217 7.40732C5.37134 7.40732 4.39051 8.40648 4.39051 9.62565C4.39051 10.8448 5.37134 11.844 6.57217 11.844C7.82801 11.844 8.36884 11.0465 8.51551 10.5057H6.48967V9.08482H10.1105L10.1197 9.14898C10.1563 9.34148 10.1655 9.51565 10.1655 9.70815C10.1655 11.8623 8.68967 13.3748 6.57217 13.3748ZM11.6138 10.1573H15.2713C15.2713 10.1573 14.9597 11.3582 13.8413 12.669C13.3647 12.1007 13.0255 11.5415 12.8055 11.1107H11.898L11.6138 10.1573ZM13.1905 13.3657L12.6955 13.8515L12.0997 11.8073C12.4022 12.3573 12.778 12.889 13.1905 13.3657ZM19.2497 18.334C19.2497 18.8382 18.8372 19.2507 18.333 19.2507H11.9163L13.7497 17.4173L13.0072 14.8782L13.8505 14.0348L16.3072 16.5007L16.9763 15.8315L14.4922 13.3748C15.3172 12.4307 15.9588 11.3123 16.2522 10.1573H17.4163V9.20398H14.0797V8.25065H13.1263V9.20398H11.3297L10.248 5.50065H18.333C18.8372 5.50065 19.2497 5.91315 19.2497 6.41732V18.334Z" fill="#AA85A9"/>
</svg>
