<svg width="32" height="32" viewBox="0 0 32 32" fill="none" xmlns="http://www.w3.org/2000/svg">
<rect width="32" height="32" rx="16" fill="url(#paint0_linear_545_33847)"/>
<path d="M16 16.7083C15.7639 16.7083 15.5661 16.6283 15.4067 16.4683C15.2467 16.3089 15.1667 16.1111 15.1667 15.875V9.20833C15.1667 8.97222 15.2467 8.77417 15.4067 8.61417C15.5661 8.45472 15.7639 8.375 16 8.375C16.2361 8.375 16.4342 8.45472 16.5942 8.61417C16.7536 8.77417 16.8333 8.97222 16.8333 9.20833V15.875C16.8333 16.1111 16.7536 16.3089 16.5942 16.4683C16.4342 16.6283 16.2361 16.7083 16 16.7083ZM16 23.375C14.9583 23.375 13.9828 23.1772 13.0733 22.7817C12.1633 22.3856 11.3717 21.8506 10.6983 21.1767C10.0244 20.5033 9.48944 19.7119 9.09333 18.8025C8.69778 17.8925 8.5 16.9167 8.5 15.875C8.5 14.9167 8.67361 14 9.02083 13.125C9.36806 12.25 9.86806 11.4583 10.5208 10.75C10.6736 10.5833 10.8681 10.5 11.1042 10.5C11.3403 10.5 11.5417 10.5833 11.7083 10.75C11.8611 10.9028 11.9306 11.0936 11.9167 11.3225C11.9028 11.5519 11.8194 11.7569 11.6667 11.9375C11.1806 12.4792 10.8092 13.0867 10.5525 13.76C10.2953 14.4339 10.1667 15.1389 10.1667 15.875C10.1667 17.5 10.7328 18.8783 11.865 20.01C12.9967 21.1422 14.375 21.7083 16 21.7083C17.625 21.7083 19.0033 21.1422 20.135 20.01C21.2672 18.8783 21.8333 17.5 21.8333 15.875C21.8333 15.1389 21.7014 14.4269 21.4375 13.7392C21.1736 13.0519 20.7986 12.4375 20.3125 11.8958C20.1597 11.7292 20.08 11.5347 20.0733 11.3125C20.0661 11.0903 20.1389 10.9028 20.2917 10.75C20.4583 10.5833 20.6597 10.5 20.8958 10.5C21.1319 10.5 21.3264 10.5833 21.4792 10.75C22.1319 11.4583 22.6319 12.25 22.9792 13.125C23.3264 14 23.5 14.9167 23.5 15.875C23.5 16.9167 23.3022 17.8925 22.9067 18.8025C22.5106 19.7119 21.9758 20.5033 21.3025 21.1767C20.6286 21.8506 19.8369 22.3856 18.9275 22.7817C18.0175 23.1772 17.0417 23.375 16 23.375Z" fill="white"/>
<defs>
<linearGradient id="paint0_linear_545_33847" x1="16" y1="0" x2="16" y2="32" gradientUnits="userSpaceOnUse">
<stop stop-color="#852988"/>
<stop offset="0.31" stop-color="#91268A"/>
<stop offset="1" stop-color="#AB218E"/>
</linearGradient>
</defs>
</svg>
