<svg width="10" height="13" viewBox="0 0 10 13" fill="none" xmlns="http://www.w3.org/2000/svg">
<path d="M3.6 1.64989e-07C3.35174 -0.000129984 3.10955 0.0767422 2.90681 0.220023C2.70407 0.363303 2.55075 0.565938 2.468 0.8H1.2C0.88174 0.8 0.576515 0.926428 0.351472 1.15147C0.126428 1.37652 0 1.68174 0 2V11.6C0 11.9183 0.126428 12.2235 0.351472 12.4485C0.576515 12.6736 0.88174 12.8 1.2 12.8H8.4C8.71826 12.8 9.02349 12.6736 9.24853 12.4485C9.47357 12.2235 9.6 11.9183 9.6 11.6V2C9.6 1.68174 9.47357 1.37652 9.24853 1.15147C9.02349 0.926428 8.71826 0.8 8.4 0.8H7.132C7.04925 0.565938 6.89593 0.363303 6.69319 0.220023C6.49045 0.0767422 6.24826 -0.000129984 6 1.64989e-07H3.6ZM3.2 1.2C3.2 1.09391 3.24214 0.992172 3.31716 0.917158C3.39217 0.842143 3.49391 0.8 3.6 0.8H6C6.10609 0.8 6.20783 0.842143 6.28284 0.917158C6.35786 0.992172 6.4 1.09391 6.4 1.2C6.4 1.30609 6.35786 1.40783 6.28284 1.48284C6.20783 1.55786 6.10609 1.6 6 1.6H3.6C3.49391 1.6 3.39217 1.55786 3.31716 1.48284C3.24214 1.40783 3.2 1.30609 3.2 1.2ZM7.0832 6.2832L4.2832 9.0832C4.24604 9.12045 4.2019 9.15 4.15331 9.17017C4.10471 9.19034 4.05261 9.20072 4 9.20072C3.94739 9.20072 3.89529 9.19034 3.84669 9.17017C3.7981 9.15 3.75396 9.12045 3.7168 9.0832L2.5168 7.8832C2.47961 7.84601 2.45011 7.80186 2.42998 7.75327C2.40985 7.70468 2.39949 7.6526 2.39949 7.6C2.39949 7.54741 2.40985 7.49532 2.42998 7.44673C2.45011 7.39814 2.47961 7.35399 2.5168 7.3168C2.59191 7.24169 2.69378 7.19949 2.8 7.19949C2.8526 7.19949 2.90468 7.20985 2.95327 7.22998C3.00186 7.25011 3.04601 7.27961 3.0832 7.3168L4 8.2344L6.5168 5.7168C6.59191 5.64169 6.69378 5.59949 6.8 5.59949C6.90622 5.59949 7.00809 5.64169 7.0832 5.7168C7.15831 5.79191 7.20051 5.89378 7.20051 6C7.20051 6.10622 7.15831 6.20809 7.0832 6.2832Z" fill="#5ABAB6"/>
</svg>
