<svg width="22" height="22" viewBox="0 0 22 22" fill="none" xmlns="http://www.w3.org/2000/svg">
<path d="M10.9998 14.5C10.0716 14.5 9.18134 14.1313 8.52497 13.4749C7.86859 12.8185 7.49984 11.9283 7.49984 11C7.49984 10.0717 7.86859 9.18151 8.52497 8.52513C9.18134 7.86875 10.0716 7.5 10.9998 7.5C11.9281 7.5 12.8183 7.86875 13.4747 8.52513C14.1311 9.18151 14.4998 10.0717 14.4998 11C14.4998 11.9283 14.1311 12.8185 13.4747 13.4749C12.8183 14.1313 11.9281 14.5 10.9998 14.5ZM18.4298 11.97C18.4698 11.65 18.4998 11.33 18.4998 11C18.4998 10.67 18.4698 10.34 18.4298 10L20.5398 8.37C20.7298 8.22 20.7798 7.95 20.6598 7.73L18.6598 4.27C18.5398 4.05 18.2698 3.96 18.0498 4.05L15.5598 5.05C15.0398 4.66 14.4998 4.32 13.8698 4.07L13.4998 1.42C13.4795 1.30222 13.4182 1.19543 13.3267 1.11855C13.2351 1.04168 13.1194 0.99968 12.9998 1H8.99984C8.74984 1 8.53984 1.18 8.49984 1.42L8.12984 4.07C7.49984 4.32 6.95984 4.66 6.43984 5.05L3.94984 4.05C3.72984 3.96 3.45984 4.05 3.33984 4.27L1.33984 7.73C1.20984 7.95 1.26984 8.22 1.45984 8.37L3.56984 10C3.52984 10.34 3.49984 10.67 3.49984 11C3.49984 11.33 3.52984 11.65 3.56984 11.97L1.45984 13.63C1.26984 13.78 1.20984 14.05 1.33984 14.27L3.33984 17.73C3.45984 17.95 3.72984 18.03 3.94984 17.95L6.43984 16.94C6.95984 17.34 7.49984 17.68 8.12984 17.93L8.49984 20.58C8.53984 20.82 8.74984 21 8.99984 21H12.9998C13.2498 21 13.4598 20.82 13.4998 20.58L13.8698 17.93C14.4998 17.67 15.0398 17.34 15.5598 16.94L18.0498 17.95C18.2698 18.03 18.5398 17.95 18.6598 17.73L20.6598 14.27C20.7798 14.05 20.7298 13.78 20.5398 13.63L18.4298 11.97Z" stroke="white" stroke-width="2"/>
</svg>
