<svg width="6" height="8" viewBox="0 0 6 8" fill="none" xmlns="http://www.w3.org/2000/svg">
<path d="M4.4455 7.06161L1.77251 4.04739H1.20379V7.06161H0V0H2.4455C3.24803 0 3.86098 0.186414 4.28436 0.559242C4.70774 0.925751 4.91943 1.41548 4.91943 2.02844C4.91943 2.52133 4.77725 2.94155 4.49289 3.2891C4.20853 3.63033 3.79463 3.85782 3.25118 3.97156L6 7.06161H4.4455ZM1.20379 3.06161H2.33175C2.75513 3.06161 3.08057 2.97314 3.30806 2.79621C3.54186 2.61295 3.65877 2.35703 3.65877 2.02844C3.65877 1.69984 3.54186 1.44708 3.30806 1.27014C3.08057 1.08689 2.75513 0.995261 2.33175 0.995261H1.20379V3.06161Z" fill="white"/>
</svg>
