<svg width="35" height="32" viewBox="0 0 35 32" fill="none" xmlns="http://www.w3.org/2000/svg">
<rect x="1" y="1" width="30" height="30" rx="15" fill="#EFEFEF"/>
<path d="M9 15.3926H24.6906V26.0003H9V15.3926Z" fill="white"/>
<path d="M9 15.3926V14.9926H8.6V15.3926H9ZM24.6906 15.3926H25.0906V14.9926H24.6906V15.3926ZM24.6906 26.0003V26.4003H25.0906V26.0003H24.6906ZM9 26.0003H8.6V26.4003H9V26.0003ZM9 15.7926H24.6906V14.9926H9V15.7926ZM24.2906 15.3926V26.0003H25.0906V15.3926H24.2906ZM24.6906 25.6003H9V26.4003H24.6906V25.6003ZM9.4 26.0003V15.3926H8.6V26.0003H9.4Z" fill="#344F6C"/>
<path d="M15.1182 6V8.36681C5.00832 7.21887 4.04364 21.4342 13.9029 20.9898C8.10396 20.3159 7.15526 11.7193 15.1182 12.4242V14.791L20.0898 10.3955L15.1182 6Z" fill="#A8D0F3" stroke="#344F6C" stroke-width="0.8"/>
<circle cx="11.2096" cy="24.233" r="0.441989" fill="#344F6C"/>
<circle cx="12.5357" cy="24.233" r="0.441989" fill="#344F6C"/>
<circle cx="14.0826" cy="24.233" r="0.441989" fill="#344F6C"/>
<path d="M14.5244 15.3926H19.3863V17.8445C19.3863 17.955 19.2968 18.0445 19.1863 18.0445H14.7244C14.614 18.0445 14.5244 17.955 14.5244 17.8445V15.3926Z" fill="white" stroke="#344F6C" stroke-width="0.8"/>
<rect x="1" y="1" width="30" height="30" rx="15" stroke="#99BED9" stroke-width="0.5"/>
<circle cx="29.75" cy="7.25" r="5" fill="#4EAF48"/>
<path d="M32.84 5.40669L28.664 9.58268L26.75 7.66869L27.2407 7.17801L28.664 8.59785L32.3493 4.91602L32.84 5.40669Z" fill="white"/>
</svg>
