<svg width="10" height="12" viewBox="0 0 10 12" fill="none" xmlns="http://www.w3.org/2000/svg">
<path d="M7.818 5.418C7.86221 5.3768 7.89767 5.32712 7.92227 5.27192C7.94686 5.21672 7.96009 5.15714 7.96115 5.09671C7.96222 5.03629 7.95111 4.97627 7.92847 4.92024C7.90584 4.86421 7.87215 4.81331 7.82942 4.77058C7.78669 4.72785 7.73579 4.69416 7.67976 4.67153C7.62373 4.64889 7.56371 4.63778 7.50329 4.63884C7.44286 4.63991 7.38328 4.65314 7.32808 4.67773C7.27288 4.70233 7.2232 4.73779 7.182 4.782L4.2 7.764L3.018 6.582C2.93269 6.50251 2.81987 6.45924 2.70329 6.4613C2.58671 6.46335 2.47547 6.51058 2.39303 6.59303C2.31058 6.67548 2.26335 6.78671 2.2613 6.90329C2.25924 7.01987 2.30251 7.1327 2.382 7.218L3.882 8.718C3.96638 8.80227 4.08075 8.8496 4.2 8.8496C4.31925 8.8496 4.43362 8.80227 4.518 8.718L7.818 5.418ZM7.1964 1.2504C7.17126 0.910514 7.01849 0.592716 6.76876 0.360792C6.51902 0.128867 6.19081 -1.99786e-05 5.85 2.32285e-09H3.75C3.41794 1.00347e-05 3.09753 0.122404 2.85003 0.343783C2.60252 0.565162 2.4453 0.869994 2.4084 1.2H1.35C0.991958 1.2 0.64858 1.34223 0.395406 1.59541C0.142232 1.84858 0 2.19196 0 2.55V10.65C0 11.008 0.142232 11.3514 0.395406 11.6046C0.64858 11.8578 0.991958 12 1.35 12H8.25C8.42728 12 8.60283 11.9651 8.76662 11.8972C8.93041 11.8294 9.07924 11.73 9.20459 11.6046C9.32995 11.4792 9.42939 11.3304 9.49724 11.1666C9.56508 11.0028 9.6 10.8273 9.6 10.65V2.55C9.6 2.37272 9.56508 2.19717 9.49724 2.03338C9.42939 1.86959 9.32995 1.72077 9.20459 1.59541C9.07924 1.47005 8.93041 1.37061 8.76662 1.30276C8.60283 1.23492 8.42728 1.2 8.25 1.2H7.1916L7.1964 1.2504ZM7.1964 1.2576L7.2 1.35C7.2 1.3188 7.1982 1.2882 7.1964 1.2576ZM3.75 2.7H5.85C6.318 2.7 6.7302 2.4618 6.9726 2.1H8.25C8.36935 2.1 8.48381 2.14741 8.5682 2.2318C8.65259 2.31619 8.7 2.43065 8.7 2.55V10.65C8.7 10.7693 8.65259 10.8838 8.5682 10.9682C8.48381 11.0526 8.36935 11.1 8.25 11.1H1.35C1.23065 11.1 1.11619 11.0526 1.0318 10.9682C0.947411 10.8838 0.9 10.7693 0.9 10.65V2.55C0.9 2.43065 0.947411 2.31619 1.0318 2.2318C1.11619 2.14741 1.23065 2.1 1.35 2.1H2.6274C2.8698 2.4618 3.282 2.7 3.75 2.7Z" fill="#5ABAB6"/>
</svg>
