<svg width="32" height="32" viewBox="0 0 32 32" fill="none" xmlns="http://www.w3.org/2000/svg">
<rect x="1" y="1" width="30" height="30" rx="15" fill="#EFEFEF"/>
<rect x="1" y="1" width="30" height="30" rx="15" stroke="#99BED9" stroke-width="0.5"/>
<path fill-rule="evenodd" clip-rule="evenodd" d="M22.1525 15.3926H8V26.0003H23.6906V17.8798C22.6313 19.5922 20.6109 20.7972 17.582 20.6634C20.753 20.3022 22.4922 17.6484 22.1525 15.3926Z" fill="white"/>
<path d="M8 15.3926V14.9926H7.6V15.3926H8ZM22.1525 15.3926L22.5481 15.333L22.4968 14.9926H22.1525V15.3926ZM8 26.0003H7.6V26.4003H8V26.0003ZM23.6906 26.0003V26.4003H24.0906V26.0003H23.6906ZM23.6906 17.8798H24.0906V16.4729L23.3504 17.6693L23.6906 17.8798ZM17.582 20.6634L17.5367 20.266L17.5643 21.063L17.582 20.6634ZM8 15.7926H22.1525V14.9926H8V15.7926ZM8.4 26.0003V15.3926H7.6V26.0003H8.4ZM23.6906 25.6003H8V26.4003H23.6906V25.6003ZM23.2906 17.8798V26.0003H24.0906V17.8798H23.2906ZM23.3504 17.6693C22.3769 19.2431 20.5029 20.3921 17.5996 20.2638L17.5643 21.063C20.7188 21.2024 22.8856 19.9412 24.0308 18.0902L23.3504 17.6693ZM17.6272 21.0608C21.0091 20.6756 22.9236 17.8268 22.5481 15.333L21.757 15.4521C22.0609 17.47 20.4968 19.9288 17.5367 20.266L17.6272 21.0608Z" fill="#344F6C"/>
<path d="M16.5085 6V8.32044C26.6199 7.19499 27.5847 21.1318 17.724 20.6961C23.5238 20.0355 24.4726 11.6073 16.5085 12.2983V14.6188L11.5361 10.3094L16.5085 6Z" fill="#A8D0F3" stroke="#344F6C" stroke-width="0.8"/>
<circle cx="10.2096" cy="24.233" r="0.441989" fill="#344F6C"/>
<circle cx="11.5357" cy="24.233" r="0.441989" fill="#344F6C"/>
<circle cx="13.0826" cy="24.233" r="0.441989" fill="#344F6C"/>
<path d="M13.5244 15.3926H18.3863V17.8445C18.3863 17.955 18.2968 18.0445 18.1863 18.0445H13.7244C13.614 18.0445 13.5244 17.955 13.5244 17.8445V15.3926Z" fill="white" stroke="#344F6C" stroke-width="0.8"/>
</svg>
