<svg width="15" height="18" viewBox="0 0 15 18" fill="none" xmlns="http://www.w3.org/2000/svg">
<path d="M12.227 8.127C12.2933 8.0652 12.3465 7.99068 12.3834 7.90788C12.4203 7.82509 12.4401 7.7357 12.4417 7.64507C12.4433 7.55444 12.4267 7.46441 12.3927 7.38036C12.3588 7.29631 12.3082 7.21996 12.2441 7.15587C12.18 7.09177 12.1037 7.04124 12.0196 7.00729C11.9356 6.97334 11.8456 6.95667 11.7549 6.95827C11.6643 6.95987 11.5749 6.9797 11.4921 7.0166C11.4093 7.05349 11.3348 7.10668 11.273 7.173L6.8 11.646L5.027 9.873C4.89904 9.75377 4.7298 9.68886 4.55493 9.69194C4.38006 9.69503 4.21321 9.76587 4.08954 9.88954C3.96587 10.0132 3.89503 10.1801 3.89194 10.3549C3.88886 10.5298 3.95377 10.699 4.073 10.827L6.323 13.077C6.44956 13.2034 6.62112 13.2744 6.8 13.2744C6.97888 13.2744 7.15044 13.2034 7.277 13.077L12.227 8.127ZM11.2946 1.8756C11.2569 1.36577 11.0277 0.889075 10.6531 0.541187C10.2785 0.1933 9.78622 -2.9968e-05 9.275 3.48427e-09H6.125C5.62691 1.5052e-05 5.14629 0.183606 4.77504 0.515674C4.40379 0.847743 4.16794 1.30499 4.1126 1.8H2.525C1.98794 1.8 1.47287 2.01335 1.09311 2.39311C0.713348 2.77287 0.5 3.28794 0.5 3.825V15.975C0.5 16.5121 0.713348 17.0271 1.09311 17.4069C1.47287 17.7867 1.98794 18 2.525 18H12.875C13.1409 18 13.4043 17.9476 13.6499 17.8459C13.8956 17.7441 14.1189 17.5949 14.3069 17.4069C14.4949 17.2189 14.6441 16.9956 14.7459 16.7499C14.8476 16.5042 14.9 16.2409 14.9 15.975V3.825C14.9 3.55907 14.8476 3.29575 14.7459 3.05007C14.6441 2.80438 14.4949 2.58115 14.3069 2.39311C14.1189 2.20507 13.8956 2.05591 13.6499 1.95414C13.4043 1.85238 13.1409 1.8 12.875 1.8H11.2874L11.2946 1.8756ZM11.2946 1.8864L11.3 2.025C11.3 1.9782 11.2973 1.9323 11.2946 1.8864ZM6.125 4.05H9.275C9.977 4.05 10.5953 3.6927 10.9589 3.15H12.875C13.054 3.15 13.2257 3.22112 13.3523 3.3477C13.4789 3.47429 13.55 3.64598 13.55 3.825V15.975C13.55 16.154 13.4789 16.3257 13.3523 16.4523C13.2257 16.5789 13.054 16.65 12.875 16.65H2.525C2.34598 16.65 2.17429 16.5789 2.0477 16.4523C1.92112 16.3257 1.85 16.154 1.85 15.975V3.825C1.85 3.64598 1.92112 3.47429 2.0477 3.3477C2.17429 3.22112 2.34598 3.15 2.525 3.15H4.4411C4.8047 3.6927 5.423 4.05 6.125 4.05Z" fill="#514B4D"/>
</svg>
