<svg width="22" height="22" viewBox="0 0 22 22" fill="none" xmlns="http://www.w3.org/2000/svg">
<path d="M5.66667 11.3333H12.3333M5.66667 14H15M5.66667 16.6667H9.66667M19 18V8.66667L12.3333 2H5.66667C4.95942 2 4.28115 2.28095 3.78105 2.78105C3.28095 3.28115 3 3.95942 3 4.66667V18C3 18.7072 3.28095 19.3855 3.78105 19.8856C4.28115 20.3857 4.95942 20.6667 5.66667 20.6667H16.3333C17.0406 20.6667 17.7189 20.3857 18.219 19.8856C18.719 19.3855 19 18.7072 19 18V18Z" stroke="#AA85A9" stroke-width="1.5" stroke-linecap="round" stroke-linejoin="round"/>
<path d="M12.334 2V6C12.334 6.70724 12.6149 7.38552 13.115 7.88562C13.6151 8.38572 14.2934 8.66667 15.0007 8.66667H19.0007" stroke="#AA85A9" stroke-width="1.5" stroke-linecap="round" stroke-linejoin="round"/>
</svg>
