<svg width="14" height="14" viewBox="0 0 14 14" fill="none" xmlns="http://www.w3.org/2000/svg">
<path d="M12.333 2.33398H6.25301L5.66634 0.333984H1.66634C0.933008 0.333984 0.333008 0.933984 0.333008 1.66732V10.334C0.333008 11.0673 0.933008 11.6673 1.66634 11.6673H6.33301L6.99967 13.6673H12.333C13.0663 13.6673 13.6663 13.0673 13.6663 12.334V3.66732C13.6663 2.93398 13.0663 2.33398 12.333 2.33398ZM3.77967 8.72732C2.27967 8.72732 1.05301 7.50732 1.05301 6.00065C1.05301 4.49398 2.27301 3.27398 3.77967 3.27398C4.47301 3.27398 5.10634 3.52065 5.60634 3.98732L5.65301 4.02732L4.83301 4.81398L4.79301 4.78065C4.59967 4.60065 4.27301 4.38732 3.77967 4.38732C2.90634 4.38732 2.19301 5.11398 2.19301 6.00065C2.19301 6.88732 2.90634 7.61398 3.77967 7.61398C4.69301 7.61398 5.08634 7.03398 5.19301 6.64065H3.71967V5.60732H6.35301L6.35967 5.65398C6.38634 5.79398 6.39301 5.92065 6.39301 6.06065C6.39301 7.62732 5.31967 8.72732 3.77967 8.72732ZM7.44634 6.38732H10.1063C10.1063 6.38732 9.87967 7.26065 9.06634 8.21398C8.71968 7.80065 8.47301 7.39398 8.31301 7.08065H7.65301L7.44634 6.38732ZM8.59301 8.72065L8.23301 9.07398L7.79967 7.58732C8.01967 7.98732 8.29301 8.37398 8.59301 8.72065ZM12.9997 12.334C12.9997 12.7007 12.6997 13.0007 12.333 13.0007H7.66634L8.99967 11.6673L8.45967 9.82065L9.07301 9.20732L10.8597 11.0007L11.3463 10.514L9.53967 8.72732C10.1397 8.04065 10.6063 7.22732 10.8197 6.38732H11.6663V5.69398H9.23967V5.00065H8.54634V5.69398H7.23967L6.45301 3.00065H12.333C12.6997 3.00065 12.9997 3.30065 12.9997 3.66732V12.334Z" fill="#4263EB"/>
</svg>
