<svg width="19" height="21" viewBox="0 0 19 21" fill="none" xmlns="http://www.w3.org/2000/svg">
<path d="M3.125 19.5938C2.54062 19.5938 2.04054 19.3859 1.62475 18.9701C1.20825 18.5536 1 18.0531 1 17.4688V7.90625C1 7.56979 1.07544 7.25104 1.22631 6.95C1.37648 6.64896 1.58438 6.40104 1.85 6.20625L8.225 1.425C8.41979 1.28333 8.62344 1.17708 8.83594 1.10625C9.04844 1.03542 9.26979 1 9.5 1C9.73021 1 9.95156 1.03542 10.1641 1.10625C10.3766 1.17708 10.5802 1.28333 10.775 1.425L17.15 6.20625C17.4156 6.40104 17.6239 6.64896 17.7748 6.95C17.9249 7.25104 18 7.56979 18 7.90625V17.4688C18 18.0531 17.7921 18.5536 17.3763 18.9701C16.9598 19.3859 16.4594 19.5938 15.875 19.5938H11.625V12.1562H7.375V19.5938H3.125Z" stroke="white" stroke-width="2"/>
</svg>
