<svg width="32" height="32" viewBox="0 0 32 32" fill="none" xmlns="http://www.w3.org/2000/svg">
<rect x="1" y="1" width="30" height="30" rx="15" fill="#EFEFEF"/>
<path fill-rule="evenodd" clip-rule="evenodd" d="M7.00006 10L14.2501 8L22.0001 10L14.2501 12.25L7.00006 10ZM6 10.7502L14 13.2502V23.7502L6 21.2502V10.7502ZM14.75 13.2502L22.5 10.7502V21.2502L14.75 23.7502V13.2502Z" fill="#121212"/>
<path d="M14.2501 8L14.3125 7.75793L14.2479 7.74125L14.1836 7.759L14.2501 8ZM7.00006 10L6.93358 9.759L6.11112 9.98589L6.92596 10.2388L7.00006 10ZM22.0001 10L22.0698 10.2401L22.9456 9.98582L22.0625 9.75793L22.0001 10ZM14.2501 12.25L14.176 12.4888L14.2477 12.511L14.3198 12.4901L14.2501 12.25ZM14 13.2502H14.25V13.0664L14.0746 13.0116L14 13.2502ZM6 10.7502L6.07457 10.5116L5.75 10.4102V10.7502H6ZM14 23.7502L13.9254 23.9889L14.25 24.0903V23.7502H14ZM6 21.2502H5.75V21.434L5.92543 21.4889L6 21.2502ZM22.5 10.7502H22.75V10.4069L22.4233 10.5123L22.5 10.7502ZM14.75 13.2502L14.6732 13.0123L14.5 13.0682V13.2502H14.75ZM22.5 21.2502L22.5767 21.4882L22.75 21.4323V21.2502H22.5ZM14.75 23.7502H14.5V24.0936L14.8268 23.9882L14.75 23.7502ZM14.1836 7.759L6.93358 9.759L7.06654 10.241L14.3165 8.241L14.1836 7.759ZM22.0625 9.75793L14.3125 7.75793L14.1876 8.24207L21.9376 10.2421L22.0625 9.75793ZM14.3198 12.4901L22.0698 10.2401L21.9304 9.75991L14.1804 12.0099L14.3198 12.4901ZM6.92596 10.2388L14.176 12.4888L14.3242 12.0112L7.07416 9.76123L6.92596 10.2388ZM14.0746 13.0116L6.07457 10.5116L5.92543 10.9889L13.9254 13.4889L14.0746 13.0116ZM14.25 23.7502V13.2502H13.75V23.7502H14.25ZM5.92543 21.4889L13.9254 23.9889L14.0746 23.5116L6.07457 21.0116L5.92543 21.4889ZM5.75 10.7502V21.2502H6.25V10.7502H5.75ZM22.4233 10.5123L14.6732 13.0123L14.8268 13.4882L22.5767 10.9882L22.4233 10.5123ZM22.75 21.2502V10.7502H22.25V21.2502H22.75ZM14.8268 23.9882L22.5767 21.4882L22.4233 21.0123L14.6732 23.5123L14.8268 23.9882ZM14.5 13.2502V23.7502H15V13.2502H14.5ZM15 13.2502V13.1682H14.5V13.2502H15Z" fill="#121212"/>
<circle cx="21.75" cy="19" r="4.5" fill="#121212" stroke="white" stroke-width="0.5"/>
<path d="M11.2292 20.479L7.35812 18.5298L11.2292 20.479Z" fill="#27AAE1"/>
<path d="M11.6563 20.9551C11.7705 20.9278 11.8578 20.8285 11.8776 20.6894C11.9056 20.5034 11.7877 20.3131 11.6239 20.2738L7.42229 19.2103C7.25264 19.1668 7.09813 19.2877 7.07471 19.4726C7.048 19.6638 7.16458 19.8488 7.3284 19.8881L11.53 20.9516C11.5762 20.963 11.6198 20.9638 11.6609 20.954L11.6563 20.9551Z" fill="white"/>
<path d="M11.8579 17.1586C11.9236 17.1576 11.9936 17.1292 12.049 17.0739C12.1737 16.9466 12.189 16.7283 12.0834 16.5774L11.2148 15.3925C11.114 15.2524 10.9352 15.228 10.8055 15.3336L10.1384 15.8946C10.004 16.0057 9.97469 16.2295 10.0711 16.386C10.1721 16.5425 10.3605 16.5776 10.4949 16.4665L10.9349 16.0944L11.6211 17.0262C11.6834 17.1069 11.7685 17.1492 11.8577 17.1477L11.8579 17.1586Z" fill="white"/>
<path d="M11.0474 19.3271C11.2164 19.3244 11.3502 19.1804 11.3475 19.0093L11.2931 15.5864C11.2903 15.4104 11.152 15.2756 10.983 15.2783C10.8141 15.281 10.6802 15.425 10.6829 15.5961L10.7374 19.019C10.7402 19.195 10.8785 19.3298 11.0474 19.3271Z" fill="white"/>
<path d="M9.0389 16.6942C9.10461 16.6932 9.17458 16.6648 9.23003 16.6095C9.35945 16.4821 9.37006 16.2639 9.26438 16.113L8.39592 14.9335C8.2951 14.7934 8.11632 14.769 7.98655 14.8746L7.31947 15.4356C7.18509 15.5467 7.15579 15.7706 7.25217 15.9271C7.34855 16.0836 7.54158 16.1186 7.67595 16.0075L8.11601 15.6354L8.80215 16.5672C8.86447 16.648 8.94964 16.6902 9.03881 16.6888L9.0389 16.6942Z" fill="white"/>
<path d="M8.22296 18.8555C8.39192 18.8528 8.52108 18.7094 8.51829 18.5339L8.46402 15.1215C8.46123 14.9461 8.32288 14.8069 8.15861 14.8095C7.99434 14.8121 7.85579 14.9557 7.85858 15.1312L7.91285 18.5435C7.91564 18.719 8.054 18.8582 8.22296 18.8555Z" fill="white"/>
<path d="M21.2262 20.4643V20.4286C21.2302 20.0496 21.2698 19.748 21.3452 19.5238C21.4206 19.2996 21.5278 19.1181 21.6667 18.9792C21.8056 18.8403 21.9722 18.7123 22.1667 18.5952C22.2837 18.5238 22.3889 18.4395 22.4821 18.3423C22.5754 18.2431 22.6488 18.129 22.7024 18C22.7579 17.871 22.7857 17.7282 22.7857 17.5714C22.7857 17.377 22.7401 17.2083 22.6488 17.0655C22.5575 16.9226 22.4355 16.8125 22.2827 16.7351C22.13 16.6577 21.9603 16.619 21.7738 16.619C21.6111 16.619 21.4544 16.6528 21.3036 16.7202C21.1528 16.7877 21.0268 16.8938 20.9256 17.0387C20.8244 17.1835 20.7659 17.373 20.75 17.6071H20C20.0159 17.2698 20.1032 16.9812 20.2619 16.7411C20.4226 16.501 20.6339 16.3175 20.8958 16.1905C21.1597 16.0635 21.4524 16 21.7738 16C22.123 16 22.4266 16.0694 22.6845 16.2083C22.9444 16.3472 23.1448 16.5377 23.2857 16.7798C23.4286 17.0218 23.5 17.2976 23.5 17.6071C23.5 17.8254 23.4663 18.0228 23.3988 18.1994C23.3333 18.376 23.2381 18.5337 23.1131 18.6726C22.9901 18.8115 22.8413 18.9345 22.6667 19.0417C22.4921 19.1508 22.3522 19.2659 22.247 19.3869C22.1419 19.506 22.0655 19.6478 22.0179 19.8125C21.9702 19.9772 21.9444 20.1825 21.9405 20.4286V20.4643H21.2262ZM21.6071 22.2262C21.4603 22.2262 21.3343 22.1736 21.2292 22.0685C21.124 21.9633 21.0714 21.8373 21.0714 21.6905C21.0714 21.5437 21.124 21.4177 21.2292 21.3125C21.3343 21.2073 21.4603 21.1548 21.6071 21.1548C21.754 21.1548 21.88 21.2073 21.9851 21.3125C22.0903 21.4177 22.1429 21.5437 22.1429 21.6905C22.1429 21.7877 22.1181 21.877 22.0685 21.9583C22.0208 22.0397 21.9563 22.1052 21.875 22.1548C21.7956 22.2024 21.7063 22.2262 21.6071 22.2262Z" fill="white"/>
<rect x="1" y="1" width="30" height="30" rx="15" stroke="#99BED9" stroke-width="0.5"/>
</svg>
