<svg width="35" height="32" viewBox="0 0 35 32" fill="none" xmlns="http://www.w3.org/2000/svg">
<rect x="1" y="1" width="30" height="30" rx="15" fill="#EFEFEF"/>
<path d="M14.5379 24.147L6.25 20.156V11.2363L14.5379 15.2274V24.147Z" fill="white"/>
<path d="M14.5379 24.147L6.25 20.156V11.2363L14.5379 15.2274V24.147Z" stroke="#464C54" stroke-width="0.5" stroke-linecap="round" stroke-linejoin="round"/>
<path d="M14.5379 15.222L6.25 11.2309L14.5399 7.25L22.8278 11.2411L14.5379 15.222Z" fill="white"/>
<path fill-rule="evenodd" clip-rule="evenodd" d="M23.075 11.2363C23.075 11.1503 23.0308 11.0704 22.958 11.0246C22.8852 10.9789 22.794 10.9738 22.7165 11.0111L14.4286 15.0021C14.3421 15.0438 14.2871 15.1314 14.2871 15.2274V24.147C14.2871 24.2339 14.3322 24.3146 14.4063 24.3601C14.4803 24.4055 14.5727 24.4093 14.6502 24.37L19.8873 21.714C20.4266 22.0536 21.0651 22.25 21.7495 22.25C23.6825 22.25 25.2495 20.683 25.2495 18.75C25.2495 17.2861 24.3508 16.0321 23.075 15.5097V11.2363ZM22.575 15.3479V11.6342L14.7871 15.3845V23.7399L19.4402 21.3801C18.7102 20.7387 18.2495 19.7981 18.2495 18.75C18.2495 16.817 19.8165 15.25 21.7495 15.25C22.0339 15.25 22.3103 15.2839 22.575 15.3479Z" fill="#464C54"/>
<path d="M20.2646 18.4763L21.2406 19.7824L23.1704 17.2432" stroke="white" stroke-width="0.5" stroke-linecap="round" stroke-linejoin="round"/>
<path fill-rule="evenodd" clip-rule="evenodd" d="M14.6484 7.02476C14.5799 6.99179 14.5002 6.99175 14.4317 7.02464L6.14178 11.0056C6.05516 11.0472 6.00005 11.1347 6 11.2308C5.99995 11.3269 6.05497 11.4145 6.14153 11.4562L14.4294 15.4472C14.4979 15.4802 14.5776 15.4803 14.6461 15.4474L22.936 11.4664C23.0226 11.4248 23.0777 11.3373 23.0778 11.2412C23.0778 11.1451 23.0228 11.0575 22.9363 11.0158L14.6484 7.02476ZM14.538 14.9446L6.82686 11.2313L10.3994 9.51569L18.0994 13.2344L14.538 14.9446ZM18.6759 12.9575L22.2509 11.2407L14.5398 7.5274L10.9758 9.23885L18.6759 12.9575Z" fill="#464C54"/>
<rect x="1" y="1" width="30" height="30" rx="15" stroke="#99BED9" stroke-width="0.5"/>
<circle cx="29.75" cy="7.25" r="5" fill="#4EAF48"/>
<path d="M32.84 5.40767L28.664 9.58366L26.75 7.66966L27.2407 7.17899L28.664 8.59882L32.3493 4.91699L32.84 5.40767Z" fill="white"/>
</svg>
