<svg width="24" height="24" viewBox="0 0 24 24" fill="none" xmlns="http://www.w3.org/2000/svg">
<circle cx="12" cy="12" r="10" fill="#495057"/>
<path d="M11.9988 5.95454C10.846 5.95439 9.7171 6.28377 8.74524 6.90386C7.77338 7.52396 6.99902 8.40893 6.5134 9.4545H8.02284C8.14942 9.4545 8.27082 9.50478 8.36032 9.59429C8.44983 9.68379 8.50011 9.80519 8.50011 9.93177C8.50011 10.0583 8.44983 10.1797 8.36032 10.2692C8.27082 10.3588 8.14942 10.409 8.02284 10.409H5.6365C5.46773 10.409 5.30587 10.342 5.18653 10.2227C5.06719 10.1033 5.00015 9.94145 5.00015 9.77268V7.38634C5.00015 7.25976 5.05043 7.13837 5.13993 7.04886C5.22944 6.95935 5.35083 6.90907 5.47741 6.90907C5.60399 6.90907 5.72539 6.95935 5.81489 7.04886C5.9044 7.13837 5.95468 7.25976 5.95468 7.38634V8.46624C6.57163 7.4109 7.45426 6.53558 8.51469 5.92743C9.57512 5.31929 10.7764 4.99953 11.9988 5C15.8653 5 19 8.13406 19 11.9999C19 15.8658 15.8653 18.9999 11.9988 18.9999C8.19084 18.9999 5.09305 15.96 5.00015 12.1749C4.99702 12.0483 5.04431 11.9257 5.13161 11.834C5.21891 11.7423 5.33906 11.689 5.46564 11.6859C5.59222 11.6828 5.71486 11.7301 5.80657 11.8173C5.89828 11.9046 5.95156 12.0248 5.95468 12.1514C5.99419 13.7281 6.64835 15.227 7.77755 16.3281C8.90675 17.4292 10.4216 18.0455 11.9988 18.0453C15.3384 18.0453 18.0455 15.3389 18.0455 11.9999C18.0455 8.66096 15.3384 5.95454 11.9988 5.95454Z" fill="white"/>
<path d="M12.3178 8.97727C12.3178 8.85069 12.2675 8.72929 12.178 8.63979C12.0885 8.55028 11.9671 8.5 11.8405 8.5C11.714 8.5 11.5926 8.55028 11.5031 8.63979C11.4136 8.72929 11.3633 8.85069 11.3633 8.97727V12.4772C11.3633 12.649 11.4549 12.8069 11.6038 12.8915L13.8311 14.1642C13.9407 14.2235 14.0692 14.2375 14.189 14.2033C14.3088 14.1691 14.4105 14.0893 14.4724 13.9811C14.5342 13.8729 14.5513 13.7448 14.5199 13.6242C14.4885 13.5036 14.4112 13.4001 14.3045 13.3357L12.3178 12.2004V8.97727Z" fill="white"/>
</svg>
