<svg width="16" height="12" viewBox="0 0 16 12" fill="none" xmlns="http://www.w3.org/2000/svg">
<path d="M11 9.75004V11.25H0.5V9.75004C0.5 9.75004 0.5 6.75004 5.75 6.75004C11 6.75004 11 9.75004 11 9.75004ZM8.375 2.62504C8.375 2.10586 8.22105 1.59835 7.93261 1.16667C7.64417 0.734989 7.2342 0.398536 6.75454 0.199856C6.27489 0.00117575 5.74709 -0.050808 5.23789 0.0504782C4.72869 0.151764 4.26096 0.401771 3.89384 0.768884C3.52673 1.136 3.27673 1.60373 3.17544 2.11293C3.07415 2.62213 3.12614 3.14993 3.32482 3.62958C3.5235 4.10924 3.85995 4.51921 4.29163 4.80765C4.72331 5.09609 5.23082 5.25004 5.75 5.25004C6.44619 5.25004 7.11387 4.97348 7.60616 4.48119C8.09844 3.98891 8.375 3.32123 8.375 2.62504ZM10.955 6.75004C11.4161 7.10685 11.7933 7.56036 12.0603 8.07867C12.3272 8.59698 12.4773 9.16748 12.5 9.75004V11.25H15.5V9.75004C15.5 9.75004 15.5 7.02754 10.955 6.75004ZM10.25 3.94342e-05C9.73377 -0.0028351 9.22889 0.151506 8.8025 0.44254C9.25808 1.07909 9.50304 1.84225 9.50304 2.62504C9.50304 3.40782 9.25808 4.17099 8.8025 4.80754C9.22889 5.09857 9.73377 5.25291 10.25 5.25004C10.9462 5.25004 11.6139 4.97348 12.1062 4.48119C12.5984 3.98891 12.875 3.32123 12.875 2.62504C12.875 1.92885 12.5984 1.26117 12.1062 0.768884C11.6139 0.276601 10.9462 3.94343e-05 10.25 3.94342e-05Z" fill="#5ABAB6"/>
</svg>
