<svg width="18" height="22" viewBox="0 0 18 22" fill="none" xmlns="http://www.w3.org/2000/svg">
<path d="M14.03 10.03C14.1037 9.96134 14.1628 9.87854 14.2038 9.78654C14.2448 9.69454 14.2668 9.59523 14.2686 9.49452C14.2704 9.39382 14.2518 9.29379 14.2141 9.2004C14.1764 9.10701 14.1203 9.02218 14.049 8.95096C13.9778 8.87974 13.893 8.8236 13.7996 8.78588C13.7062 8.74816 13.6062 8.72963 13.5055 8.73141C13.4048 8.73318 13.3055 8.75523 13.2135 8.79622C13.1215 8.83721 13.0387 8.89631 12.97 8.97L8 13.94L6.03 11.97C5.88782 11.8375 5.69978 11.7654 5.50548 11.7688C5.31118 11.7723 5.12579 11.851 4.98838 11.9884C4.85097 12.1258 4.77225 12.3112 4.76883 12.5055C4.7654 12.6998 4.83752 12.8878 4.97 13.03L7.47 15.53C7.61063 15.6705 7.80125 15.7493 8 15.7493C8.19875 15.7493 8.38937 15.6705 8.53 15.53L14.03 10.03ZM12.994 3.084C12.9521 2.51752 12.6975 1.98786 12.2813 1.60132C11.865 1.21478 11.318 0.999967 10.75 1H7.25C6.69656 1.00002 6.16255 1.20401 5.75004 1.57297C5.33754 1.94194 5.07549 2.44999 5.014 3H3.25C2.65326 3 2.08097 3.23705 1.65901 3.65901C1.23705 4.08097 1 4.65326 1 5.25V18.75C1 19.3467 1.23705 19.919 1.65901 20.341C2.08097 20.7629 2.65326 21 3.25 21H14.75C15.0455 21 15.3381 20.9418 15.611 20.8287C15.884 20.7157 16.1321 20.5499 16.341 20.341C16.5499 20.1321 16.7157 19.884 16.8287 19.611C16.9418 19.3381 17 19.0455 17 18.75V5.25C17 4.95453 16.9418 4.66194 16.8287 4.38896C16.7157 4.11598 16.5499 3.86794 16.341 3.65901C16.1321 3.45008 15.884 3.28434 15.611 3.17127C15.3381 3.0582 15.0455 3 14.75 3H12.986L12.994 3.084ZM12.994 3.096L13 3.25C13 3.198 12.997 3.147 12.994 3.096ZM7.25 5.5H10.75C11.53 5.5 12.217 5.103 12.621 4.5H14.75C14.9489 4.5 15.1397 4.57902 15.2803 4.71967C15.421 4.86032 15.5 5.05109 15.5 5.25V18.75C15.5 18.9489 15.421 19.1397 15.2803 19.2803C15.1397 19.421 14.9489 19.5 14.75 19.5H3.25C3.05109 19.5 2.86032 19.421 2.71967 19.2803C2.57902 19.1397 2.5 18.9489 2.5 18.75V5.25C2.5 5.05109 2.57902 4.86032 2.71967 4.71967C2.86032 4.57902 3.05109 4.5 3.25 4.5H5.379C5.783 5.103 6.47 5.5 7.25 5.5Z" fill="white"/>
<path d="M7.25 4H10.75M14.03 10.03C14.1037 9.96134 14.1628 9.87854 14.2038 9.78654C14.2448 9.69454 14.2668 9.59523 14.2686 9.49452C14.2704 9.39382 14.2518 9.29379 14.2141 9.2004C14.1764 9.10701 14.1203 9.02218 14.049 8.95096C13.9778 8.87974 13.893 8.8236 13.7996 8.78588C13.7062 8.74816 13.6062 8.72963 13.5055 8.73141C13.4048 8.73318 13.3055 8.75523 13.2135 8.79622C13.1215 8.83721 13.0387 8.89631 12.97 8.97L8 13.94L6.03 11.97C5.88782 11.8375 5.69978 11.7654 5.50548 11.7688C5.31118 11.7723 5.12579 11.851 4.98838 11.9884C4.85096 12.1258 4.77225 12.3112 4.76883 12.5055C4.7654 12.6998 4.83752 12.8878 4.97 13.03L7.47 15.53C7.61063 15.6705 7.80125 15.7493 8 15.7493C8.19875 15.7493 8.38937 15.6705 8.53 15.53L14.03 10.03ZM12.994 3.084C12.9521 2.51752 12.6975 1.98786 12.2813 1.60132C11.865 1.21478 11.318 0.999967 10.75 1H7.25C6.69656 1.00002 6.16255 1.20401 5.75004 1.57297C5.33754 1.94194 5.07549 2.44999 5.014 3H3.25C2.65326 3 2.08097 3.23705 1.65901 3.65901C1.23705 4.08097 1 4.65326 1 5.25V18.75C1 19.3467 1.23705 19.919 1.65901 20.341C2.08097 20.7629 2.65326 21 3.25 21H14.75C15.0455 21 15.3381 20.9418 15.611 20.8287C15.884 20.7157 16.1321 20.5499 16.341 20.341C16.5499 20.1321 16.7157 19.884 16.8287 19.611C16.9418 19.3381 17 19.0455 17 18.75V5.25C17 4.95453 16.9418 4.66194 16.8287 4.38896C16.7157 4.11598 16.5499 3.86794 16.341 3.65901C16.1321 3.45008 15.884 3.28434 15.611 3.17127C15.3381 3.0582 15.0455 3 14.75 3H12.986L12.994 3.084ZM12.994 3.096L13 3.25C13 3.198 12.997 3.147 12.994 3.096ZM7.25 5.5H10.75C11.53 5.5 12.217 5.103 12.621 4.5H14.75C14.9489 4.5 15.1397 4.57902 15.2803 4.71967C15.421 4.86032 15.5 5.05109 15.5 5.25V18.75C15.5 18.9489 15.421 19.1397 15.2803 19.2803C15.1397 19.421 14.9489 19.5 14.75 19.5H3.25C3.05109 19.5 2.86032 19.421 2.71967 19.2803C2.57902 19.1397 2.5 18.9489 2.5 18.75V5.25C2.5 5.05109 2.57902 4.86032 2.71967 4.71967C2.86032 4.57902 3.05109 4.5 3.25 4.5H5.379C5.783 5.103 6.47 5.5 7.25 5.5Z" stroke="white" stroke-width="0.2"/>
</svg>
