<svg width="24" height="24" viewBox="0 0 24 24" fill="none" xmlns="http://www.w3.org/2000/svg">
<path d="M17.03 11.03C17.1037 10.9613 17.1628 10.8785 17.2038 10.7865C17.2448 10.6945 17.2668 10.5952 17.2686 10.4945C17.2704 10.3938 17.2518 10.2938 17.2141 10.2004C17.1764 10.107 17.1203 10.0222 17.049 9.95096C16.9778 9.87974 16.893 9.8236 16.7996 9.78588C16.7062 9.74816 16.6062 9.72963 16.5055 9.73141C16.4048 9.73318 16.3055 9.75523 16.2135 9.79622C16.1215 9.83721 16.0387 9.89631 15.97 9.97L11 14.94L9.03 12.97C8.88782 12.8375 8.69978 12.7654 8.50548 12.7688C8.31118 12.7723 8.12579 12.851 7.98838 12.9884C7.85097 13.1258 7.77225 13.3112 7.76883 13.5055C7.7654 13.6998 7.83752 13.8878 7.97 14.03L10.47 16.53C10.6106 16.6705 10.8012 16.7493 11 16.7493C11.1988 16.7493 11.3894 16.6705 11.53 16.53L17.03 11.03ZM15.994 4.084C15.9521 3.51752 15.6975 2.98786 15.2813 2.60132C14.865 2.21478 14.318 1.99997 13.75 2H10.25C9.69656 2.00002 9.16255 2.20401 8.75004 2.57297C8.33754 2.94194 8.07549 3.44999 8.014 4H6.25C5.65326 4 5.08097 4.23705 4.65901 4.65901C4.23705 5.08097 4 5.65326 4 6.25V19.75C4 20.3467 4.23705 20.919 4.65901 21.341C5.08097 21.7629 5.65326 22 6.25 22H17.75C18.0455 22 18.3381 21.9418 18.611 21.8287C18.884 21.7157 19.1321 21.5499 19.341 21.341C19.5499 21.1321 19.7157 20.884 19.8287 20.611C19.9418 20.3381 20 20.0455 20 19.75V6.25C20 5.95453 19.9418 5.66194 19.8287 5.38896C19.7157 5.11598 19.5499 4.86794 19.341 4.65901C19.1321 4.45008 18.884 4.28434 18.611 4.17127C18.3381 4.0582 18.0455 4 17.75 4H15.986L15.994 4.084ZM15.994 4.096L16 4.25C16 4.198 15.997 4.147 15.994 4.096ZM10.25 6.5H13.75C14.53 6.5 15.217 6.103 15.621 5.5H17.75C17.9489 5.5 18.1397 5.57902 18.2803 5.71967C18.421 5.86032 18.5 6.05109 18.5 6.25V19.75C18.5 19.9489 18.421 20.1397 18.2803 20.2803C18.1397 20.421 17.9489 20.5 17.75 20.5H6.25C6.05109 20.5 5.86032 20.421 5.71967 20.2803C5.57902 20.1397 5.5 19.9489 5.5 19.75V6.25C5.5 6.05109 5.57902 5.86032 5.71967 5.71967C5.86032 5.57902 6.05109 5.5 6.25 5.5H8.379C8.783 6.103 9.47 6.5 10.25 6.5Z" fill="#852988"/>
<path d="M10.25 5H13.75M17.03 11.03C17.1037 10.9613 17.1628 10.8785 17.2038 10.7865C17.2448 10.6945 17.2668 10.5952 17.2686 10.4945C17.2704 10.3938 17.2518 10.2938 17.2141 10.2004C17.1764 10.107 17.1203 10.0222 17.049 9.95096C16.9778 9.87974 16.893 9.8236 16.7996 9.78588C16.7062 9.74816 16.6062 9.72963 16.5055 9.73141C16.4048 9.73318 16.3055 9.75523 16.2135 9.79622C16.1215 9.83721 16.0387 9.89631 15.97 9.97L11 14.94L9.03 12.97C8.88782 12.8375 8.69978 12.7654 8.50548 12.7688C8.31118 12.7723 8.12579 12.851 7.98838 12.9884C7.85096 13.1258 7.77225 13.3112 7.76883 13.5055C7.7654 13.6998 7.83752 13.8878 7.97 14.03L10.47 16.53C10.6106 16.6705 10.8012 16.7493 11 16.7493C11.1988 16.7493 11.3894 16.6705 11.53 16.53L17.03 11.03ZM15.994 4.084C15.9521 3.51752 15.6975 2.98786 15.2813 2.60132C14.865 2.21478 14.318 1.99997 13.75 2H10.25C9.69656 2.00002 9.16255 2.20401 8.75004 2.57297C8.33754 2.94194 8.07549 3.44999 8.014 4H6.25C5.65326 4 5.08097 4.23705 4.65901 4.65901C4.23705 5.08097 4 5.65326 4 6.25V19.75C4 20.3467 4.23705 20.919 4.65901 21.341C5.08097 21.7629 5.65326 22 6.25 22H17.75C18.0455 22 18.3381 21.9418 18.611 21.8287C18.884 21.7157 19.1321 21.5499 19.341 21.341C19.5499 21.1321 19.7157 20.884 19.8287 20.611C19.9418 20.3381 20 20.0455 20 19.75V6.25C20 5.95453 19.9418 5.66194 19.8287 5.38896C19.7157 5.11598 19.5499 4.86794 19.341 4.65901C19.1321 4.45008 18.884 4.28434 18.611 4.17127C18.3381 4.0582 18.0455 4 17.75 4H15.986L15.994 4.084ZM15.994 4.096L16 4.25C16 4.198 15.997 4.147 15.994 4.096ZM10.25 6.5H13.75C14.53 6.5 15.217 6.103 15.621 5.5H17.75C17.9489 5.5 18.1397 5.57902 18.2803 5.71967C18.421 5.86032 18.5 6.05109 18.5 6.25V19.75C18.5 19.9489 18.421 20.1397 18.2803 20.2803C18.1397 20.421 17.9489 20.5 17.75 20.5H6.25C6.05109 20.5 5.86032 20.421 5.71967 20.2803C5.57902 20.1397 5.5 19.9489 5.5 19.75V6.25C5.5 6.05109 5.57902 5.86032 5.71967 5.71967C5.86032 5.57902 6.05109 5.5 6.25 5.5H8.379C8.783 6.103 9.47 6.5 10.25 6.5Z" stroke="#852988" stroke-width="0.2"/>
</svg>
