<svg width="32" height="32" viewBox="0 0 32 32" fill="none" xmlns="http://www.w3.org/2000/svg">
<rect width="32" height="32" rx="16" fill="url(#paint0_linear_545_33852)"/>
<g clip-path="url(#clip0_545_33852)">
<path d="M16.8226 10.7824C17.1428 10.6007 17.3938 10.3182 17.5365 9.97889C17.6793 9.63956 17.7056 9.26253 17.6115 8.90664C17.5174 8.55075 17.3082 8.23602 17.0164 8.01159C16.7246 7.78716 16.3667 7.66564 15.9986 7.66602C15.6304 7.66639 15.2728 7.78863 14.9815 8.01365C14.6901 8.23868 14.4815 8.55383 14.3881 8.90991C14.2947 9.26599 14.3219 9.64297 14.4653 9.98201C14.6087 10.321 14.8603 10.6031 15.1809 10.784L15.1726 10.799C14.6267 11.9382 13.8684 13.5699 12.6976 14.1824C11.7359 14.6849 10.3559 14.4324 9.33089 14.244C9.31444 14.011 9.233 13.7872 9.09581 13.598C8.95861 13.4089 8.77115 13.262 8.5547 13.174C8.33824 13.086 8.10146 13.0605 7.87122 13.1002C7.64098 13.14 7.42649 13.2435 7.25209 13.399C7.0777 13.5545 6.95038 13.7558 6.88458 13.98C6.81877 14.2042 6.81713 14.4423 6.87983 14.6674C6.94252 14.8925 7.06705 15.0955 7.23928 15.2534C7.41151 15.4113 7.62455 15.5178 7.85422 15.5607L10.3109 21.9024C10.4931 22.3725 10.8132 22.7766 11.2291 23.0615C11.6451 23.3465 12.1375 23.499 12.6417 23.499H19.3584C19.8626 23.499 20.355 23.3465 20.771 23.0615C21.1869 22.7766 21.507 22.3725 21.6892 21.9024L24.1451 15.5607C24.3733 15.5182 24.5852 15.413 24.757 15.2569C24.9288 15.1008 25.0537 14.8999 25.1178 14.6768C25.1819 14.4537 25.1825 14.2171 25.1197 13.9936C25.0569 13.7701 24.9331 13.5686 24.7622 13.4115C24.5913 13.2544 24.38 13.148 24.152 13.1042C23.924 13.0605 23.6884 13.081 23.4714 13.1637C23.2545 13.2463 23.0648 13.3877 22.9237 13.572C22.7826 13.7564 22.6957 13.9764 22.6726 14.2074C21.6234 14.3432 20.2709 14.5165 19.3026 14.0107C18.1551 13.4107 17.3859 11.8915 16.8226 10.7824Z" fill="white"/>
</g>
<defs>
<linearGradient id="paint0_linear_545_33852" x1="16" y1="0" x2="16" y2="32" gradientUnits="userSpaceOnUse">
<stop stop-color="#852988"/>
<stop offset="0.31" stop-color="#91268A"/>
<stop offset="1" stop-color="#AB218E"/>
</linearGradient>
<clipPath id="clip0_545_33852">
<rect width="20" height="20" fill="white" transform="translate(6 6)"/>
</clipPath>
</defs>
</svg>
