<svg width="91" height="91" viewBox="0 0 91 91" fill="none" xmlns="http://www.w3.org/2000/svg">
<path d="M74.6908 0H16.3073C7.30047 0 -0.000976562 7.30145 -0.000976562 16.3082V74.6918C-0.000976562 83.6985 7.30047 91 16.3073 91H74.6908C83.6976 91 90.999 83.6985 90.999 74.6918V16.3082C90.999 7.30145 83.6976 0 74.6908 0Z" fill="url(#paint0_linear_646_24890)"/>
<path d="M66.9881 47.1758C65.7468 44.793 63.9439 42.7635 61.5882 41.0965C61.1624 40.7975 61.0899 40.1814 61.4705 39.819C62.902 38.4328 63.9348 37.0828 64.5509 35.7691C65.5113 33.7668 65.9915 30.9763 65.9915 27.4066C65.9915 21.6263 63.8261 17.0962 59.5044 13.8164C55.5814 10.8538 50.5892 9.37695 44.5189 9.37695C38.4486 9.37695 33.3206 11.3702 29.316 15.3476C25.6285 19.0351 23.7803 23.4111 23.7803 28.4576V83.9509C23.7803 84.7482 24.8494 85.1197 25.4111 84.5126L33.8642 75.2441H49.049C54.8294 75.2441 59.5588 73.4411 63.2553 69.8443C66.9428 66.3018 68.791 61.4093 68.791 55.1669C68.791 52.2314 68.1931 49.5768 67.0062 47.1939L66.9881 47.1758Z" fill="white"/>
<path d="M34.4449 45.9247C36.2763 45.9247 37.7609 44.4401 37.7609 42.6087C37.7609 40.7774 36.2763 39.2927 34.4449 39.2927C32.6135 39.2927 31.1289 40.7774 31.1289 42.6087C31.1289 44.4401 32.6135 45.9247 34.4449 45.9247Z" fill="url(#paint1_linear_646_24890)"/>
<path d="M43.3883 45.9247C45.2197 45.9247 46.7043 44.4401 46.7043 42.6087C46.7043 40.7774 45.2197 39.2927 43.3883 39.2927C41.5569 39.2927 40.0723 40.7774 40.0723 42.6087C40.0723 44.4401 41.5569 45.9247 43.3883 45.9247Z" fill="url(#paint2_linear_646_24890)"/>
<path d="M52.3219 45.9247C54.1533 45.9247 55.6379 44.4401 55.6379 42.6087C55.6379 40.7774 54.1533 39.2927 52.3219 39.2927C50.4905 39.2927 49.0059 40.7774 49.0059 42.6087C49.0059 44.4401 50.4905 45.9247 52.3219 45.9247Z" fill="url(#paint3_linear_646_24890)"/>
<defs>
<linearGradient id="paint0_linear_646_24890" x1="45.499" y1="0" x2="45.499" y2="91" gradientUnits="userSpaceOnUse">
<stop stop-color="#852988"/>
<stop offset="0.31" stop-color="#91268A"/>
<stop offset="1" stop-color="#AB218E"/>
</linearGradient>
<linearGradient id="paint1_linear_646_24890" x1="34.4449" y1="39.2837" x2="34.4449" y2="45.9247" gradientUnits="userSpaceOnUse">
<stop stop-color="#852988"/>
<stop offset="0.31" stop-color="#91268A"/>
<stop offset="1" stop-color="#AB218E"/>
</linearGradient>
<linearGradient id="paint2_linear_646_24890" x1="43.3883" y1="39.2837" x2="43.3883" y2="45.9247" gradientUnits="userSpaceOnUse">
<stop stop-color="#852988"/>
<stop offset="0.31" stop-color="#91268A"/>
<stop offset="1" stop-color="#AB218E"/>
</linearGradient>
<linearGradient id="paint3_linear_646_24890" x1="52.3219" y1="39.2837" x2="52.3219" y2="45.9247" gradientUnits="userSpaceOnUse">
<stop stop-color="#852988"/>
<stop offset="0.31" stop-color="#91268A"/>
<stop offset="1" stop-color="#AB218E"/>
</linearGradient>
</defs>
</svg>
