<svg width="158" height="145" viewBox="0 0 158 145" fill="none" xmlns="http://www.w3.org/2000/svg">
<g clip-path="url(#clip0_416_23296)">
<path d="M47.9021 139.304H43.5514C43.3176 139.304 43.1289 139.115 43.1289 138.882L43.1109 126.225C43.1109 124.679 42.5086 123.393 41.3041 122.359C40.0995 121.371 38.4994 120.876 36.5128 120.876C34.9487 120.876 33.5644 121.344 32.3598 122.27C30.7508 123.51 29.9507 125.299 29.9507 127.654C29.9507 129.82 30.6249 131.582 31.9823 132.958C33.2228 134.198 34.724 134.809 36.5128 134.809C37.5466 134.809 38.5174 134.504 39.4433 133.902C40.1714 133.425 41.0074 132.634 41.9423 131.537C42.194 131.241 42.6794 131.421 42.6794 131.816V137.183C42.6794 137.326 42.5985 137.461 42.4816 137.542C41.2861 138.297 40.4321 138.792 39.9197 139.025C38.832 139.466 37.5826 139.691 36.1623 139.691C33.2048 139.691 30.6429 138.63 28.4765 136.508C26.0764 134.198 24.8809 131.25 24.8809 127.654C24.8809 124.31 25.8787 121.577 27.8832 119.465C30.0496 117.155 33.034 115.995 36.8454 115.995C40.6568 115.995 43.3446 117.047 45.4391 119.15C47.3718 121.11 48.3336 123.555 48.3336 126.485V138.873C48.3336 139.106 48.1448 139.295 47.9111 139.295L47.9021 139.304Z" fill="url(#paint0_linear_416_23296)"/>
<path d="M69.4667 116.184C69.7004 116.184 69.8892 116.372 69.8892 116.606L69.8442 124.328C69.8262 126.593 69.2959 128.535 68.2531 130.135C67.0935 131.888 65.3856 133.119 63.1203 133.838C62.9495 133.892 62.8237 134.054 62.8237 134.234V143.726C62.8237 143.96 62.6349 144.149 62.4012 144.149H58.0324C57.7987 144.149 57.61 143.96 57.61 143.726V134.234C57.61 134.054 57.4841 133.892 57.3133 133.838C55.3177 133.2 53.7626 132.247 52.6389 130.971C51.3175 129.497 50.6523 127.627 50.6523 125.362V116.606C50.6523 116.372 50.8411 116.184 51.0748 116.184H55.3537C55.5874 116.184 55.7762 116.372 55.7762 116.606V124.328C55.7762 125.757 56.0818 126.872 56.6841 127.681C57.4032 128.679 58.5718 129.182 60.1988 129.182C61.6281 129.182 62.7338 128.714 63.5068 127.771C64.2889 126.872 64.6754 125.757 64.6754 124.418V116.606C64.6754 116.372 64.8642 116.184 65.0979 116.184H69.4667V116.184Z" fill="url(#paint1_linear_416_23296)"/>
<path d="M93.0991 106.467H88.8652C84.946 106.467 81.3143 107.914 77.9524 110.791C74.2309 113.982 72.3701 117.955 72.3701 122.692C72.3701 127.43 73.9163 131.322 77.0085 134.486C80.0559 137.695 83.9482 139.304 88.6944 139.304H93.1081C93.3418 139.304 93.5306 139.116 93.5306 138.882V134.603C93.5306 134.369 93.3418 134.181 93.1081 134.181H89.4406C85.1707 134.181 82.0335 132.733 80.0379 129.83C78.7165 127.897 78.0513 125.614 78.0513 122.962C78.0513 119.942 78.9682 117.371 80.8109 115.231C82.9324 112.759 85.8449 111.519 89.5574 111.519L93.1081 111.555C93.3418 111.555 93.5306 111.366 93.5306 111.132V106.88C93.5306 106.647 93.3418 106.458 93.1081 106.458L93.0991 106.467Z" fill="#231F20"/>
<path d="M107.077 116.094C105.199 116.094 103.563 116.463 102.178 117.209C101.9 117.362 101.558 117.164 101.558 116.84V106.889C101.558 106.656 101.369 106.467 101.135 106.467H96.9645C96.7308 106.467 96.542 106.656 96.542 106.889V138.882C96.542 139.115 96.7308 139.304 96.9645 139.304H101.135C101.369 139.304 101.558 139.115 101.558 138.882V126.27C101.558 124.868 101.9 123.708 102.592 122.782C103.473 121.605 104.794 121.011 106.547 121.011C107.868 121.011 108.938 121.434 109.747 122.27C110.529 123.151 110.916 124.391 110.916 125.982L110.934 138.882C110.934 139.115 111.122 139.304 111.356 139.304H115.707C115.941 139.304 116.129 139.115 116.129 138.882V125.254C116.129 122.279 115.221 119.96 113.415 118.297C111.779 116.822 109.666 116.085 107.077 116.085V116.094Z" fill="#231F20"/>
<path d="M130.782 116.005C126.971 116.005 123.977 117.164 121.82 119.475C119.815 121.596 118.817 124.329 118.817 127.664C118.817 131.26 120.013 134.208 122.413 136.518C124.579 138.64 127.141 139.7 130.099 139.7C131.51 139.7 132.76 139.476 133.856 139.035C134.369 138.801 135.223 138.307 136.418 137.552C136.544 137.471 136.616 137.336 136.616 137.192V131.826C136.616 131.439 136.131 131.251 135.879 131.547C134.944 132.644 134.117 133.426 133.38 133.911C132.463 134.514 131.483 134.819 130.449 134.819C128.67 134.819 127.159 134.199 125.919 132.967C124.561 131.601 123.887 129.83 123.887 127.664C123.887 125.309 124.687 123.511 126.296 122.279C127.501 121.353 128.885 120.886 130.449 120.886C132.436 120.886 134.036 121.38 135.241 122.369C136.445 123.403 137.047 124.688 137.047 126.235L137.065 138.891C137.065 139.125 137.254 139.314 137.488 139.314H141.839C142.072 139.314 142.261 139.125 142.261 138.891V126.504C142.261 123.574 141.299 121.129 139.367 119.169C137.272 117.066 134.414 116.014 130.773 116.014L130.782 116.005Z" fill="#231F20"/>
<path d="M150.603 121.371H157.533C157.767 121.371 157.956 121.183 157.956 120.949V116.868C157.956 116.634 157.767 116.445 157.533 116.445H150.603C150.369 116.445 150.18 116.257 150.18 116.023V111.339C150.18 111.106 149.991 110.917 149.758 110.917H145.542C145.308 110.917 145.119 111.106 145.119 111.339V131.916C145.119 134.046 145.658 135.763 146.728 137.057C147.969 138.532 149.838 139.269 152.337 139.269H157.524C157.758 139.269 157.947 139.08 157.947 138.846V134.765C157.947 134.532 157.758 134.343 157.524 134.343H152.427C151.645 134.343 151.07 134.181 150.701 133.857C150.351 133.552 150.171 133.147 150.171 132.662V121.776C150.171 121.542 150.36 121.353 150.594 121.353L150.603 121.371Z" fill="#231F20"/>
<path d="M21.9593 125.083C21.3301 123.87 20.4132 122.845 19.2176 122C19.0019 121.847 18.9659 121.532 19.1547 121.353C19.8828 120.651 20.4042 119.968 20.7188 119.294C21.2042 118.278 21.447 116.867 21.447 115.051C21.447 112.121 20.3503 109.828 18.1569 108.165C16.1703 106.664 13.6354 105.909 10.5611 105.909C7.48678 105.909 4.88891 106.916 2.85735 108.939C0.987608 110.808 0.0527344 113.02 0.0527344 115.582V143.709C0.0527344 144.113 0.592085 144.302 0.879738 143.996L5.27544 139.178C5.27544 139.178 5.33837 139.097 5.35634 139.052C5.35634 139.043 5.35634 139.034 5.36533 139.016C5.36533 138.989 5.38331 138.971 5.38331 138.944C5.38331 138.926 5.3923 138.899 5.3923 138.881L5.34735 116.184C5.34735 114.746 5.83277 113.505 6.8036 112.471C7.72948 111.482 9.0419 110.988 10.7319 110.988C12.296 110.988 13.5904 111.339 14.6152 112.049C15.604 112.786 16.0984 113.874 16.0984 115.321C16.0984 116.498 15.7838 117.478 15.1455 118.26C14.3365 119.294 13.087 119.806 11.3881 119.806H6.37212C6.1384 119.806 5.94963 119.995 5.94963 120.229V124.508C5.94963 124.741 6.1384 124.93 6.37212 124.93H12.0892C13.6354 124.93 14.8759 125.254 15.8018 125.901C16.9524 126.71 17.5277 127.915 17.5277 129.524C17.5277 131.133 17.0153 132.337 15.9815 133.146C15.1096 133.839 13.968 134.18 12.5387 134.18H6.37212C6.1384 134.18 5.94963 134.369 5.94963 134.603V138.881C5.94963 139.115 6.1384 139.304 6.37212 139.304H12.8623C15.7928 139.304 18.1929 138.387 20.0626 136.562C21.9324 134.764 22.8672 132.283 22.8672 129.119C22.8672 127.636 22.5616 126.288 21.9593 125.074V125.083Z" fill="url(#paint2_linear_416_23296)"/>
<path d="M107.968 0.420898H50.0418C41.1056 0.420898 33.8613 7.66516 33.8613 16.6014V74.5276C33.8613 83.4638 41.1056 90.7081 50.0418 90.7081H107.968C116.904 90.7081 124.149 83.4638 124.149 74.5276V16.6014C124.149 7.66516 116.904 0.420898 107.968 0.420898Z" fill="url(#paint3_linear_416_23296)"/>
<path d="M100.327 47.2274C99.0958 44.8633 97.307 42.8497 94.9698 41.1957C94.5473 40.899 94.4754 40.2878 94.8529 39.9282C96.2732 38.5529 97.298 37.2135 97.9093 35.9101C98.8621 33.9234 99.3385 31.1548 99.3385 27.6131C99.3385 21.878 97.1901 17.3834 92.9023 14.1293C89.01 11.1898 84.057 9.72461 78.0342 9.72461C72.0115 9.72461 66.9236 11.7022 62.9504 15.6485C59.2918 19.3071 57.458 23.6488 57.458 28.6558V83.7144C57.458 84.5055 58.5187 84.874 59.0761 84.2718L67.4629 75.0759H82.5288C88.2639 75.0759 92.9562 73.287 96.6238 69.7183C100.282 66.2035 102.116 61.3494 102.116 55.1559C102.116 52.2434 101.523 49.6095 100.345 47.2454L100.327 47.2274Z" fill="white"/>
<path d="M68.0381 45.9873C69.8551 45.9873 71.3281 44.5143 71.3281 42.6973C71.3281 40.8802 69.8551 39.4072 68.0381 39.4072C66.221 39.4072 64.748 40.8802 64.748 42.6973C64.748 44.5143 66.221 45.9873 68.0381 45.9873Z" fill="url(#paint4_linear_416_23296)"/>
<path d="M76.9102 45.9873C78.7272 45.9873 80.2002 44.5143 80.2002 42.6973C80.2002 40.8802 78.7272 39.4072 76.9102 39.4072C75.0931 39.4072 73.6201 40.8802 73.6201 42.6973C73.6201 44.5143 75.0931 45.9873 76.9102 45.9873Z" fill="url(#paint5_linear_416_23296)"/>
<path d="M85.7734 45.9873C87.5905 45.9873 89.0635 44.5143 89.0635 42.6973C89.0635 40.8802 87.5905 39.4072 85.7734 39.4072C83.9564 39.4072 82.4834 40.8802 82.4834 42.6973C82.4834 44.5143 83.9564 45.9873 85.7734 45.9873Z" fill="url(#paint6_linear_416_23296)"/>
</g>
<defs>
<linearGradient id="paint0_linear_416_23296" x1="36.5937" y1="116.004" x2="36.5937" y2="139.7" gradientUnits="userSpaceOnUse">
<stop stop-color="#852988"/>
<stop offset="0.31" stop-color="#91268A"/>
<stop offset="1" stop-color="#AB218E"/>
</linearGradient>
<linearGradient id="paint1_linear_416_23296" x1="60.2708" y1="116.184" x2="60.2708" y2="144.149" gradientUnits="userSpaceOnUse">
<stop stop-color="#852988"/>
<stop offset="0.31" stop-color="#91268A"/>
<stop offset="1" stop-color="#AB218E"/>
</linearGradient>
<linearGradient id="paint2_linear_416_23296" x1="11.46" y1="105.909" x2="11.46" y2="144.149" gradientUnits="userSpaceOnUse">
<stop stop-color="#852988"/>
<stop offset="0.31" stop-color="#91268A"/>
<stop offset="1" stop-color="#AB218E"/>
</linearGradient>
<linearGradient id="paint3_linear_416_23296" x1="79.0049" y1="0.420898" x2="79.0049" y2="90.7081" gradientUnits="userSpaceOnUse">
<stop stop-color="#852988"/>
<stop offset="0.31" stop-color="#91268A"/>
<stop offset="1" stop-color="#AB218E"/>
</linearGradient>
<linearGradient id="paint4_linear_416_23296" x1="68.0381" y1="39.3982" x2="68.0381" y2="45.9873" gradientUnits="userSpaceOnUse">
<stop stop-color="#852988"/>
<stop offset="0.31" stop-color="#91268A"/>
<stop offset="1" stop-color="#AB218E"/>
</linearGradient>
<linearGradient id="paint5_linear_416_23296" x1="76.9102" y1="39.3982" x2="76.9102" y2="45.9873" gradientUnits="userSpaceOnUse">
<stop stop-color="#852988"/>
<stop offset="0.31" stop-color="#91268A"/>
<stop offset="1" stop-color="#AB218E"/>
</linearGradient>
<linearGradient id="paint6_linear_416_23296" x1="85.7734" y1="39.3982" x2="85.7734" y2="45.9873" gradientUnits="userSpaceOnUse">
<stop stop-color="#852988"/>
<stop offset="0.31" stop-color="#91268A"/>
<stop offset="1" stop-color="#AB218E"/>
</linearGradient>
<clipPath id="clip0_416_23296">
<rect width="157.895" height="143.728" fill="white" transform="translate(0.0527344 0.420898)"/>
</clipPath>
</defs>
</svg>
